<svg xmlns="http://www.w3.org/2000/svg" width="917" height="117" viewBox="0 0 917 117">
  <path fill="#F1644C" fill-rule="evenodd" d="M515.782073,17.9329702 C520.039073,11.6449702 527.488073,10.7259702 531.165073,13.0479702 C527.779073,15.1279702 524.441073,20.0619702 521.345073,26.2539702 L523.173115,26.0268818 L523.173115,26.0268818 L525.008443,25.8059211 L525.008443,25.8059211 L526.848843,25.5914313 L526.848843,25.5914313 L528.692099,25.383756 L528.692099,25.383756 L531.457496,25.085771 L531.457496,25.085771 L533.298205,24.8966339 L533.298205,24.8966339 L535.13402,24.7155129 L535.13402,24.7155129 L536.962727,24.5427514 L536.962727,24.5427514 L538.782109,24.3786929 L538.782109,24.3786929 L540.589953,24.2236806 L540.589953,24.2236806 L543.27524,24.0088752 L543.27524,24.0088752 L545.044549,23.8779809 L545.044549,23.8779809 L546.794568,23.7573347 C547.084507,23.7381001 547.373551,23.7193068 547.661652,23.7009619 L549.378584,23.5963317 L549.378584,23.5963317 L551.07069,23.5028079 L551.07069,23.5028079 L552.735755,23.4207341 L552.735755,23.4207341 L554.371564,23.3504535 C554.641638,23.3397419 554.9104,23.329536 555.177805,23.319843 L556.765578,23.267896 L556.765578,23.267896 L558.318559,23.2286008 C559.597598,23.2012217 560.838088,23.1873791 562.034261,23.1879672 L563.448028,23.1956569 C564.375867,23.2054775 565.273866,23.2247626 566.139073,23.2539702 C568.421682,23.3277745 568.267027,24.2699626 567.274067,24.929108 L567.095932,25.0391168 L567.095932,25.0391168 L566.903163,25.1422912 L566.903163,25.1422912 L566.69755,25.2373422 C566.66231,25.2524355 566.62661,25.2671366 566.590486,25.2814186 L566.368964,25.3618674 C566.293629,25.3868643 566.2169,25.4099702 566.139073,25.4309702 C558.157273,25.4603702 548.712793,26.2904102 538.902697,27.6497942 L536.717104,27.9604827 L536.717104,27.9604827 L534.522148,28.2879366 C533.789234,28.3998087 533.055205,28.5143647 532.320507,28.6314943 L530.114855,28.9904942 C527.90809,29.3569946 525.699322,29.7456659 523.500589,30.1535308 L521.305648,30.5676834 L521.305648,30.5676834 L519.120073,30.9939702 L519.120073,30.9939702 L518.874451,31.5535248 L518.874451,31.5535248 L518.387681,32.6837056 C518.307057,32.8732298 518.226689,33.0633112 518.146581,33.2539152 L517.669074,34.4035319 C517.590019,34.5960872 517.511231,34.7890956 517.432716,34.9825225 L516.964913,36.1478269 L516.964913,36.1478269 L516.503823,37.3215074 L516.503823,37.3215074 L516.049643,38.5018982 L516.049643,38.5018982 L515.602567,39.6873334 L515.602567,39.6873334 L515.162791,40.876147 L515.162791,40.876147 L514.730511,42.0666733 L514.730511,42.0666733 L514.305922,43.2572463 L514.305922,43.2572463 L513.683887,45.0395494 L513.683887,45.0395494 L513.279381,46.2229511 L513.279381,46.2229511 L512.688388,47.9866884 L512.688388,47.9866884 L512.116899,49.7317897 L512.116899,49.7317897 L511.565574,51.4526327 L511.565574,51.4526327 L511.209552,52.5836082 L511.209552,52.5836082 L510.862982,53.6996374 L510.862982,53.6996374 L510.198974,55.880194 L510.198974,55.880194 L509.575116,57.9809755 L509.575116,57.9809755 L508.99297,59.9886549 L508.99297,59.9886549 L508.326331,62.3470263 L508.326331,62.3470263 L507.843758,64.096499 L507.843758,64.096499 L507.306534,66.0899446 L507.306534,66.0899446 L506.762683,68.1640742 L506.762683,68.1640742 L506.397073,69.5969702 C504.946073,75.2569702 506.833073,76.9499702 508.332073,74.5309702 C509.411488,72.7750559 510.474184,70.94506 511.509274,69.0911064 L512.071066,68.0777843 C513.629274,65.2478211 515.119068,62.3835319 516.502158,59.6611725 L518.011099,56.6676896 L518.011099,56.6676896 L520.8086,51.0676511 L520.8086,51.0676511 L521.782806,49.1461168 L521.782806,49.1461168 L522.32177,48.1042827 L522.32177,48.1042827 L522.824703,47.1543365 L522.824703,47.1543365 L523.139221,46.5755518 L523.139221,46.5755518 L523.436597,46.0428022 L523.436597,46.0428022 L523.716378,45.5581658 C523.761517,45.481518 523.805904,45.4069615 523.84953,45.3345396 L524.102073,44.9259702 L524.102073,44.9259702 C527.730073,39.2904702 532.156323,36.3879702 535.875198,35.1907202 L536.336265,35.0498711 C536.412459,35.0278517 536.488318,35.0065539 536.56383,34.9859683 L537.012619,34.8709274 C537.308883,34.7998322 537.599145,34.7398357 537.882535,34.6903429 L538.302356,34.6239073 L538.302356,34.6239073 L538.711215,34.5727813 C538.778408,34.5655113 538.845117,34.5588606 538.911329,34.55282 L539.302518,34.523822 C539.366685,34.5201843 539.430326,34.517138 539.49343,34.5146739 L539.865479,34.5068003 C540.291745,34.505591 540.690291,34.5319959 541.056449,34.5828275 L541.362258,34.6323051 C542.354455,34.816675 543.071365,35.1930119 543.404073,35.6869702 C542.373059,36.94928 541.136862,38.9826197 539.83559,41.4562949 L539.373844,42.347102 L539.373844,42.347102 L538.908063,43.271246 L538.908063,43.271246 L538.439616,44.2254959 C538.361395,44.3868668 538.28312,44.5493576 538.20482,44.7129009 L537.734939,45.7062517 L537.734939,45.7062517 L537.265815,46.7216312 L537.265815,46.7216312 L536.798816,47.7558085 L536.798816,47.7558085 L536.33531,48.8055527 L536.33531,48.8055527 L535.876666,49.867633 L535.876666,49.867633 L535.424255,50.9388185 C535.349448,51.1179287 535.274958,51.2972836 535.200813,51.476816 L534.760315,52.5556013 L534.760315,52.5556013 L534.329471,53.6354146 L534.329471,53.6354146 L533.909649,54.7130249 L533.909649,54.7130249 L533.502218,55.7852015 L533.502218,55.7852015 L533.108548,56.8487134 L533.108548,56.8487134 L532.730006,57.9003297 C532.606499,58.2485269 532.485742,58.594203 532.367963,58.9368196 L532.023787,59.9549522 L532.023787,59.9549522 L531.698846,60.9514965 L531.698846,60.9514965 L531.39451,61.9232218 C531.247721,62.4023412 531.109173,62.8709418 530.979634,63.3272063 L530.732799,64.2227488 C530.38125,65.5397748 530.115411,66.7348716 529.956073,67.7589702 C529.930692,67.922494 529.907729,68.0886527 529.887595,68.2561821 L529.846933,68.6382362 L529.846933,68.6382362 L529.816642,69.0283749 L529.816642,69.0283749 L529.798647,69.4165268 L529.798647,69.4165268 L529.794076,69.7992323 C529.794356,69.8413245 529.794905,69.8832517 529.795731,69.9249926 L529.810813,70.2950551 L529.810813,70.2950551 L529.829719,70.5344667 C529.833483,70.573811 529.837558,70.6128623 529.841952,70.6515992 L529.872188,70.8800767 L529.872188,70.8800767 L529.910396,71.0999836 L529.910396,71.0999836 L529.95691,71.3102948 L529.95691,71.3102948 L530.012064,71.5099853 C530.021995,71.542325 530.0323,71.5741795 530.042986,71.6055275 L530.111727,71.787365 C530.601217,72.9568102 531.722431,73.2473737 533.921049,71.2923723 L534.258978,70.9821095 C534.374352,70.8729608 534.492474,70.7580273 534.613402,70.6371382 L534.984656,70.2564335 C535.111249,70.1234624 535.240703,69.9843649 535.373073,69.8389702 C537.443997,67.553201 539.530576,64.0840382 541.515048,60.1770621 L542.07916,59.0495139 L542.07916,59.0495139 L542.637105,57.9020036 L542.637105,57.9020036 L543.188272,56.7383954 L543.188272,56.7383954 L543.73205,55.5625537 L543.73205,55.5625537 L544.267831,54.3783428 L544.267831,54.3783428 L544.795002,53.1896272 L544.795002,53.1896272 L545.568283,51.4065605 L545.568283,51.4065605 L546.071263,50.2234895 L546.071263,50.2234895 L546.805394,48.467004 L546.805394,48.467004 L547.743067,46.1791372 L547.743067,46.1791372 L549.257073,42.4109702 L549.257073,42.4109702 C552.062073,35.4449702 561.979073,30.7519702 565.510073,33.5579702 C565.376016,33.6027072 565.208111,33.7633087 565.00967,34.0297712 L564.872889,34.2229862 L564.872889,34.2229862 L564.727278,34.4469087 L564.727278,34.4469087 L564.573057,34.7008801 C564.546648,34.7456761 564.519889,34.7916968 564.492785,34.8389283 L564.239653,35.2963348 L564.239653,35.2963348 L564.060907,35.6365008 L564.060907,35.6365008 L563.778347,36.1979456 L563.778347,36.1979456 L563.375788,37.0386461 L563.375788,37.0386461 L563.163938,37.4969889 L563.163938,37.4969889 L562.833561,38.2301414 L562.833561,38.2301414 L562.370684,39.2894114 L562.370684,39.2894114 L561.883834,40.4372608 L561.883834,40.4372608 L561.631966,41.0427561 L561.631966,41.0427561 L560.979415,42.643292 L560.979415,42.643292 L560.296908,44.3595913 L560.296908,44.3595913 L559.587853,46.1813623 L559.587853,46.1813623 L558.706744,48.4922194 L558.706744,48.4922194 L557.64453,51.3377211 L557.64453,51.3377211 L556.396856,54.752288 L556.396856,54.752288 L555.445517,57.4028025 L555.445517,57.4028025 L554.647282,59.6558845 L554.647282,59.6558845 L553.899618,61.7893836 L552.967659,64.4794807 C552.100714,66.9976782 551.244213,69.5295502 550.418073,72.0149702 C543.645073,92.0419702 533.729073,106.55497 520.087073,113.95597 C519.068496,114.505083 517.842331,115.008803 516.505388,115.437432 L515.880823,115.629821 C515.459673,115.754381 515.029445,115.8714 514.592959,115.980012 L513.93389,116.136516 C508.408408,117.386376 502.125468,117.255083 500.593073,114.05297 C498.029073,108.77997 505.285073,98.4279702 517.282073,93.7349702 L517.338759,93.7141182 L517.338759,93.7141182 L517.499407,93.6447989 L517.499407,93.6447989 L517.844407,93.4792665 L517.844407,93.4792665 L518.458925,93.1646135 L518.458925,93.1646135 L518.815407,92.9760072 L518.815407,92.9760072 L519.589036,92.5561938 L519.589036,92.5561938 L519.991073,92.3329702 L519.991073,92.3329702 C520.523073,91.9939702 520.571073,91.5589702 519.749073,91.7519702 C519.507073,91.8489702 519.217073,91.8009702 518.975073,91.7039702 L517.259206,92.0669252 L517.259206,92.0669252 L515.556387,92.435654 L515.556387,92.435654 L513.865466,92.811404 L513.865466,92.811404 L512.185294,93.1954224 C511.347703,93.3897065 510.513711,93.5875591 509.682672,93.7896816 L508.02434,94.1998279 C494.78611,97.5298706 482.193378,102.072769 467.596981,110.702279 L466.682073,111.24697 C465.908073,111.73097 464.312073,112.06897 464.264073,111.14997 C464.22621,109.916697 464.824266,109.260828 465.611604,108.669283 L465.896621,108.462337 L465.896621,108.462337 L466.344073,108.15097 L466.344073,108.15097 C468.396053,106.72871 470.814965,105.297924 473.489838,103.883832 L474.65156,103.278889 C475.436057,102.876372 476.240155,102.475513 477.061265,102.076898 L478.305367,101.480734 L478.305367,101.480734 L479.573046,100.888379 C479.786183,100.789995 480.000221,100.691788 480.21512,100.593767 L481.514526,100.007952 C481.732708,99.9107134 481.95167,99.8136793 482.171372,99.716859 L483.498136,99.1385772 L483.498136,99.1385772 L484.840714,98.5658689 C485.065687,98.4709065 485.291238,98.3761947 485.517326,98.2817427 L486.879983,97.7182218 C487.10806,97.6248458 487.336593,97.5317479 487.565543,97.4389375 L488.943912,96.8855967 L488.943912,96.8855967 L490.330329,96.3395942 L490.330329,96.3395942 L491.722854,95.801371 L491.722854,95.801371 L493.119544,95.2713683 C493.352565,95.1837441 493.585679,95.0964808 493.818845,95.0095876 L495.218144,94.4927429 L495.218144,94.4927429 L496.616757,93.9852216 L496.616757,93.9852216 L498.012741,93.487465 L498.012741,93.487465 L499.404155,92.9999142 L499.404155,92.9999142 L501.478464,92.2886888 L501.478464,92.2886888 L502.849962,91.8285826 C503.077652,91.7528651 503.304869,91.6776372 503.531572,91.6029081 L504.885297,91.1605921 L504.885297,91.1605921 L506.224747,90.7306877 L506.224747,90.7306877 L507.547981,90.3136361 L507.547981,90.3136361 L508.853058,89.9098784 L508.853058,89.9098784 L510.138035,89.5198559 L510.138035,89.5198559 L512.02357,88.9615406 L512.02357,88.9615406 L513.249808,88.607786 L513.249808,88.607786 L515.038135,88.1059405 L515.038135,88.1059405 L516.759401,87.6399622 L516.759401,87.6399622 L517.866421,87.3499715 L517.866421,87.3499715 L518.938784,87.0770246 L518.938784,87.0770246 L519.974548,86.8215629 L519.974548,86.8215629 L520.971771,86.5840273 L520.971771,86.5840273 L521.928514,86.3648592 L521.928514,86.3648592 L522.842835,86.1644996 L522.842835,86.1644996 L523.712793,85.9833897 L523.712793,85.9833897 L524.536446,85.8219708 L524.536446,85.8219708 L525.311853,85.6806839 C525.562065,85.6369926 525.803913,85.5967302 526.037073,85.5599702 C529.810073,84.4959702 531.358073,87.5919702 528.021073,89.8659702 C505.430073,105.05497 510.171073,115.64897 516.556073,110.76297 C516.994448,110.424345 517.446241,110.039427 517.910071,109.610117 L518.37786,109.166081 C518.84956,108.707388 519.332835,108.204936 519.826304,107.660628 L520.32312,107.102438 C520.656527,106.721103 520.99426,106.321447 521.33591,105.904033 L521.85127,105.264664 C522.024002,105.047148 522.197662,104.825263 522.372198,104.59908 L522.898387,103.907703 C522.986506,103.790348 523.074832,103.671935 523.163358,103.552475 L523.696861,102.823202 C523.786161,102.699583 523.875648,102.574934 523.965317,102.449263 L524.505444,101.683044 C524.59581,101.553321 524.686343,101.422593 524.777039,101.29087 L525.323099,100.488656 L525.323099,100.488656 L525.872731,99.6629737 L525.872731,99.6629737 L526.425627,98.8142448 C526.518031,98.670893 526.610559,98.5265984 526.703203,98.3813701 L527.26042,97.498864 L527.26042,97.498864 L527.820134,96.5943678 L527.820134,96.5943678 L528.382037,95.6683041 L528.382037,95.6683041 L528.945823,94.7210952 L528.945823,94.7210952 L529.511185,93.7531636 L529.511185,93.7531636 L530.077815,92.7649319 C530.172342,92.5985584 530.266909,92.4313567 530.36151,92.2633355 L530.929467,91.2454456 L530.929467,91.2454456 L531.497924,90.2083118 L531.497924,90.2083118 L532.066576,89.1523564 L532.066576,89.1523564 L532.635114,88.0780019 L532.635114,88.0780019 L533.203231,86.9856708 L533.203231,86.9856708 L533.770621,85.8757857 L533.770621,85.8757857 L534.336977,84.7487688 L534.336977,84.7487688 L534.90199,83.6050428 L534.90199,83.6050428 L535.465355,82.4450301 L535.465355,82.4450301 L536.026764,81.2691532 L536.026764,81.2691532 L536.58591,80.0778345 L536.58591,80.0778345 L537.142487,78.8714966 L537.142487,78.8714966 L537.696186,77.6505618 L537.696186,77.6505618 L538.246701,76.4154526 L538.246701,76.4154526 L538.793725,75.1665916 L538.793725,75.1665916 L539.33695,73.9044012 C539.517358,73.4814965 539.697082,73.0564406 539.87607,72.6293039 L540.410778,71.3417221 C540.499511,71.1261082 540.588048,70.9099918 540.676381,70.6933816 L541.203894,69.3878652 L541.203894,69.3878652 L541.726227,68.0709206 L541.726227,68.0709206 L542.243073,66.7429702 L542.243073,66.7429702 C542.436073,66.3069702 541.517073,66.2109702 541.082073,67.2259702 C540.604884,68.1693667 539.823956,69.309595 538.846038,70.5224663 L538.381092,71.086959 C537.504472,72.1296605 536.49857,73.2106933 535.428055,74.2548206 L534.838119,74.8202323 C531.860284,77.6244684 528.489315,80.0524529 526.037073,80.5779702 C517.429533,82.4024702 515.131795,75.9974666 521.73198,59.3631476 L522.230837,58.1277176 L522.230837,58.1277176 L522.76168,56.8556019 C523.673196,54.704741 524.71892,52.4002978 525.903547,49.9386455 L526.631029,48.44276 C526.879105,47.9378238 527.132773,47.4265702 527.392073,46.9089702 C527.764189,46.1185856 527.107273,45.640701 526.583245,46.4220975 L526.417349,46.6864181 L526.417349,46.6864181 L526.295839,46.8923445 L526.295839,46.8923445 L526.001546,47.4231959 L526.001546,47.4231959 L525.829806,47.7454025 L525.829806,47.7454025 L525.33291,48.705628 L525.33291,48.705628 L524.487914,50.3879446 L524.487914,50.3879446 L519.399513,60.7441813 L519.399513,60.7441813 L517.993717,63.5720763 L517.993717,63.5720763 L517.017064,65.5155572 L517.017064,65.5155572 L516.244262,67.0384044 L516.244262,67.0384044 L515.210586,69.0510029 L515.210586,69.0510029 L514.437251,70.535642 L514.437251,70.535642 L513.669314,71.9892344 L513.669314,71.9892344 L513.162024,72.9367008 L513.162024,72.9367008 L512.410592,74.3189866 C512.327837,74.4697079 512.245349,74.6194197 512.163149,74.7680674 L511.673564,75.646751 L511.673564,75.646751 L511.191883,76.4972906 L511.191883,76.4972906 L510.719105,77.3170776 L510.719105,77.3170776 L510.256231,78.1035039 L510.256231,78.1035039 L509.804262,78.8539611 L509.804262,78.8539611 L509.364199,79.5658409 L509.364199,79.5658409 L508.937042,80.2365351 L508.937042,80.2365351 L508.523792,80.8634353 C508.185489,81.3668801 507.862714,81.8219892 507.558073,82.2219702 C502.482343,88.8312102 492.143476,88.9923723 494.847133,72.5668022 L494.984175,71.7760313 L494.984175,71.7760313 L495.098798,71.1675197 L495.098798,71.1675197 L495.229741,70.5167568 L495.229741,70.5167568 L495.37672,69.8252551 L495.37672,69.8252551 L495.539446,69.0945271 L495.539446,69.0945271 L495.717634,68.3260855 L495.717634,68.3260855 L495.910997,67.5214427 L495.910997,67.5214427 L496.228868,66.2499098 L496.228868,66.2499098 L496.458914,65.3613813 L496.458914,65.3613813 L496.830467,63.9711099 L496.830467,63.9711099 L497.232941,62.5164017 L497.232941,62.5164017 L497.517956,61.513319 L497.517956,61.513319 L497.815998,60.485379 L497.815998,60.485379 L498.286857,58.9001703 L498.286857,58.9001703 L498.785413,57.2675408 L498.785413,57.2675408 L499.132693,56.1552971 L499.132693,56.1552971 L499.491566,55.0257587 L499.491566,55.0257587 L500.050987,53.3023325 L500.050987,53.3023325 L500.63488,51.5485013 L500.63488,51.5485013 L501.037261,50.3649098 L501.037261,50.3649098 L501.449802,49.1715863 L501.449802,49.1715863 L501.872217,47.9700434 L501.872217,47.9700434 L502.30422,46.7617935 L502.30422,46.7617935 L502.745524,45.5483492 L502.745524,45.5483492 L503.195842,44.3312231 L503.195842,44.3312231 L503.654888,43.1119276 L503.654888,43.1119276 L504.122375,41.8919752 L504.122375,41.8919752 L504.598017,40.6728786 L504.598017,40.6728786 L505.081527,39.4561502 L505.081527,39.4561502 L505.572619,38.2433026 C505.655084,38.0415688 505.737852,37.8400596 505.820919,37.6388067 L506.322846,36.4346162 L506.322846,36.4346162 L506.831639,35.2380878 L506.831639,35.2380878 L507.34701,34.050734 C507.433438,33.8536902 507.520127,33.6570918 507.607073,33.4609702 L506.690816,33.6728519 L506.690816,33.6728519 L504.875985,34.1011655 C504.575553,34.173035 504.276167,34.2451393 503.977863,34.3174675 L502.201339,34.7540371 L502.201339,34.7540371 L500.452618,35.1954611 C500.163582,35.2694074 499.87578,35.3435344 499.58925,35.4178312 L497.885629,35.8655628 C497.04175,36.0903608 496.209995,36.3164921 495.391383,36.5436645 L493.771985,36.9993107 L493.771985,36.9993107 L492.189445,37.4572136 C491.668276,37.6101663 491.153551,37.7634085 490.645574,37.9168535 L489.142185,38.3777109 C487.90673,38.7621217 486.71533,39.1472594 485.5727,39.5317711 L484.225256,39.9927979 C483.34297,40.2998334 482.493104,40.6061217 481.678073,40.9109702 C478.437073,42.1199702 477.857073,35.6869702 483.178073,33.6549702 L483.768083,33.4393931 L483.768083,33.4393931 L484.39811,33.2227406 L484.39811,33.2227406 L485.06715,33.0051307 L485.06715,33.0051307 L485.774201,32.7866812 L485.774201,32.7866812 L486.518258,32.5675102 L486.518258,32.5675102 L487.298318,32.3477356 L487.298318,32.3477356 L488.113377,32.1274754 L488.113377,32.1274754 L488.962433,31.9068476 L488.962433,31.9068476 L489.844481,31.6859702 L489.844481,31.6859702 L490.758518,31.464961 L490.758518,31.464961 L491.703541,31.2439382 L491.703541,31.2439382 L493.176977,30.9126362 L493.176977,30.9126362 L494.714487,30.581967 L494.714487,30.581967 L496.312682,30.2523286 L496.312682,30.2523286 L497.410187,30.033339 L497.410187,30.033339 L499.101999,29.7063035 L499.101999,29.7063035 L500.845466,29.3813606 L500.845466,29.3813606 L502.6372,29.0589085 L502.6372,29.0589085 L504.473814,28.7393452 L504.473814,28.7393452 L506.986594,28.3184428 L506.986594,28.3184428 L508.914759,28.0071686 L508.914759,28.0071686 L510.219073,27.8019702 L510.219073,27.8019702 C512.009073,24.1249702 513.895073,20.7389702 515.782073,17.9329702 Z M475.438073,68.0489702 C470.359073,52.7629702 481.872073,39.5559702 495.029073,46.4259702 C499.954798,49.0079472 496.79759,57.9716491 490.27593,57.4297542 L490.047073,57.4069702 L488.934073,56.6329702 C491.431747,53.7877865 491.462452,51.2935583 490.453294,49.8377729 L490.30937,49.6457579 C489.008494,48.0385312 486.345849,47.9253375 484.677073,50.4409702 C483.072687,52.8611456 483.528432,55.5963303 484.666985,58.7396648 L484.895507,59.3531737 L484.895507,59.3531737 L485.138861,59.9770258 L485.138861,59.9770258 L485.39483,60.6113712 L485.39483,60.6113712 L485.935733,61.912142 L485.935733,61.912142 L486.643287,63.5998033 L486.643287,63.5998033 L487.071265,64.646206 L487.071265,64.646206 L487.353395,65.3582062 L487.353395,65.3582062 L487.630386,66.0819003 L487.630386,66.0819003 L487.900019,66.8174382 C487.988423,67.0646082 488.075231,67.3137772 488.160073,67.5649702 C491.982073,78.8849702 491.401073,84.9799702 486.467073,90.8809702 C474.035073,105.68397 450.767073,100.02397 458.797073,84.6899702 C461.555073,79.4169702 466.344073,75.6439702 474.519073,76.5629702 C475.067323,77.2479285 474.814301,77.6418799 474.413935,77.9164808 L474.267576,78.0087226 L474.267576,78.0087226 L474.039071,78.1321698 L474.039071,78.1321698 L473.890073,78.2069702 L473.890073,78.2069702 C472.146126,79.0727597 470.596431,80.6252527 469.364439,82.4377837 L469.074923,82.8775654 C468.697205,83.4700155 468.353031,84.0855981 468.046446,84.7103325 L467.823619,85.1803807 C467.500139,85.8873716 467.225514,86.6015214 467.005502,87.3029236 L466.866981,87.768418 C466.845264,87.8456129 466.824237,87.9225957 466.803908,87.9993392 L466.690371,88.4567105 L466.690371,88.4567105 L466.593964,88.9070279 C465.979957,92.0315027 466.652873,94.5411807 469.198073,94.4129702 C471.955073,94.3159702 476.067073,91.5589702 478.195073,86.8659702 C479.724613,83.4770502 479.134572,79.548817 477.946435,75.5078777 L477.709413,74.7244676 C477.668801,74.5937029 477.627668,74.4628495 477.586067,74.3319219 L477.331236,73.5455785 L477.331236,73.5455785 L476.933241,72.3642227 L476.933241,72.3642227 L476.386052,70.789254 L476.386052,70.789254 L476.110889,70.0033902 C475.882173,69.3492402 475.655773,68.6971702 475.438073,68.0489702 Z M553.562073,81.1099702 C555.041873,80.7171302 556.652748,80.3328309 558.376713,79.9587969 L559.881673,79.6407505 C562.434699,79.1149972 565.208034,78.6111991 568.14924,78.1343841 L569.933689,77.8515734 C570.53494,77.7584093 571.142487,77.6663647 571.75591,77.57548 L573.613386,77.3063452 C574.238141,77.2178202 574.868352,77.1304952 575.503601,77.0444104 L577.424037,76.789917 C577.746488,76.7481349 578.070094,76.706673 578.394801,76.6655362 L580.355851,76.4226573 L580.355851,76.4226573 L582.340829,76.1878231 L582.340829,76.1878231 L584.347219,75.961275 L584.347219,75.961275 L586.372505,75.7432542 C586.711488,75.7076414 587.051153,75.672394 587.391447,75.637517 L589.440357,75.4327399 C589.782962,75.3993645 590.126092,75.3663697 590.469695,75.3337602 L592.536565,75.1427697 C592.881849,75.1117223 593.227501,75.0810705 593.573468,75.0508192 L595.652636,74.8741583 C595.999654,74.8455294 596.346884,74.817311 596.694271,74.7895084 L598.780073,74.6277202 C599.127883,74.6016002 599.475747,74.5759059 599.823611,74.5506423 L601.910384,74.4042698 L601.910384,74.4042698 L603.994659,74.2684762 L603.994659,74.2684762 L606.073918,74.1435027 L606.073918,74.1435027 L608.145645,74.0295907 C608.490165,74.0115406 608.834267,73.9939614 609.177897,73.9768582 L611.233606,73.879991 C612.258214,73.8344535 613.277638,73.7932903 614.290462,73.7566372 L616.30689,73.6893846 C618.982608,73.6078398 621.604681,73.5590102 624.146261,73.5454702 L626.036934,73.5419722 L626.036934,73.5419722 L627.894905,73.5519492 L627.894905,73.5519492 L629.717658,73.5756424 C635.431289,73.6726433 640.577313,73.9795902 644.796073,74.5309702 C646.780259,74.7942725 646.382721,76.4984899 645.03331,78.3521132 L644.79984,78.6622124 L644.79984,78.6622124 L644.550213,78.9737496 L644.550213,78.9737496 L644.285902,79.2853961 L644.285902,79.2853961 L644.008376,79.5958233 C643.961102,79.6473858 643.913339,79.698842 643.865117,79.7501644 L643.570528,80.0562712 L643.570528,80.0562712 L643.266403,80.3578369 L643.266403,80.3578369 L642.954212,80.6535327 L642.954212,80.6535327 L642.635426,80.9420299 C642.581827,80.9894391 642.528015,81.036493 642.47402,81.0831639 L642.148101,81.3583719 L642.148101,81.3583719 L641.819265,81.6230596 C641.764298,81.6662237 641.70927,81.7088941 641.654213,81.7510431 L641.32376,81.9974589 L641.32376,81.9974589 L640.994068,82.2300325 L640.994068,82.2300325 L640.666607,82.4474353 C640.612298,82.4823311 640.558144,82.5165393 640.504174,82.5500324 L640.182819,82.7421876 C640.129712,82.7727094 640.07685,82.8024606 640.024266,82.8314135 L639.712327,82.9953315 C638.942011,83.3800729 638.247783,83.5727609 637.733073,83.4799702 C629.377913,81.8846902 618.992817,81.172941 608.241445,81.0614194 L606.340681,81.0479121 C605.706051,81.0454482 605.070492,81.0450035 604.434343,81.0465204 L602.524465,81.0568982 L602.524465,81.0568982 L600.613078,81.0786995 C599.975923,81.0878321 599.338856,81.0988109 598.702214,81.1115783 L596.793904,81.1551887 C596.476178,81.1633322 596.158643,81.1719084 595.841341,81.1809101 L593.940672,81.2399691 L593.940672,81.2399691 L592.047637,81.3088947 C591.73288,81.3211853 591.418526,81.3338726 591.104617,81.3469493 L589.226842,81.4300261 C588.914882,81.4446319 588.603452,81.4596129 588.292594,81.4749617 L586.434651,81.5714111 C586.12625,81.5882025 585.818507,81.6053474 585.511462,81.6228385 L583.677921,81.7318822 L583.677921,81.7318822 L581.863189,81.8488896 L581.863189,81.8488896 L580.069297,81.9735146 L580.069297,81.9735146 L578.298276,82.1054114 C578.005125,82.127981 577.713011,82.1508391 577.421978,82.1739786 L575.689074,82.3161342 L575.689074,82.3161342 L573.984122,82.4646966 L573.984122,82.4646966 L572.309153,82.6193197 C572.032603,82.6455761 571.757387,82.6720706 571.483547,82.698796 L569.857362,82.8618616 L569.857362,82.8618616 L568.266238,83.030123 L568.266238,83.030123 L566.712209,83.2032342 L566.712209,83.2032342 L565.197306,83.3808492 L565.197306,83.3808492 L563.72356,83.5626222 C563.481479,83.5932449 563.241197,83.6240265 563.002756,83.6549597 L561.594556,83.8423207 L561.594556,83.8423207 L560.232593,84.0329745 L560.232593,84.0329745 L558.918899,84.2265753 L558.918899,84.2265753 L557.655505,84.422777 C557.449243,84.4556748 557.245163,84.4886666 557.043305,84.5217451 L555.859171,84.7211995 C555.666374,84.7545962 555.475884,84.7880652 555.287744,84.8215993 L554.187442,85.0235279 L554.187442,85.0235279 L553.62955,85.1298973 L553.62955,85.1298973 L552.237397,85.4580431 L552.237397,85.4580431 L552.208073,85.4629702 C549.015073,86.0919702 547.273073,82.7549702 553.562073,81.1099702 Z M583.699073,9.46797018 C590.133073,-0.207029816 600.146073,-2.28702982 603.146073,2.40497018 C604.500473,4.51417018 603.943193,7.93137018 601.830201,12.3345862 L601.501629,13.0024235 C601.444937,13.1149488 601.387284,13.2280803 601.328676,13.341813 L600.965601,14.0313828 C600.778374,14.3797345 600.582646,14.7334061 600.378569,15.0922618 L599.959323,15.8168452 L599.959323,15.8168452 L599.518078,16.5550113 L599.518078,16.5550113 L599.055098,17.3065188 L599.055098,17.3065188 L598.570651,18.0711261 L598.570651,18.0711261 L598.065005,18.8485917 C597.978979,18.9792274 597.89208,19.1103888 597.804315,19.2420709 L597.267369,20.0383713 C597.17616,20.1721159 597.084095,20.3063712 596.99118,20.441132 L596.423536,21.2557237 C596.327244,21.3924867 596.230112,21.5297453 596.132148,21.6674943 L595.534406,22.499834 C595.43313,22.6395249 595.331033,22.7796961 595.228119,22.9203428 L594.600879,23.7698872 L594.600879,23.7698872 L593.954309,24.6305995 L593.954309,24.6305995 L593.288675,25.5022382 L593.288675,25.5022382 L592.604244,26.3845619 L592.604244,26.3845619 L591.901282,27.2773291 L591.901282,27.2773291 L591.180057,28.1802982 L591.180057,28.1802982 L590.440837,29.0932278 L590.440837,29.0932278 L589.683887,30.0158764 L589.683887,30.0158764 L588.909475,30.9480024 L588.909475,30.9480024 L588.117867,31.8893646 L588.117867,31.8893646 L587.309331,32.8397212 L587.309331,32.8397212 L586.484134,33.7988309 L586.484134,33.7988309 L585.642543,34.7664521 L585.642543,34.7664521 L584.350001,36.2333148 L584.350001,36.2333148 L583.468592,37.2211584 L583.468592,37.2211584 L582.889585,37.8630722 L582.889585,37.8630722 L582.615197,38.1538979 L582.615197,38.1538979 L582.1812,38.5952676 L582.1812,38.5952676 L580.736566,40.0164121 L580.736566,40.0164121 L580.214165,40.5439335 L580.214165,40.5439335 L579.856284,40.9161249 L579.856284,40.9161249 L579.491407,41.3069502 C579.430044,41.3737465 579.368414,41.4413988 579.30653,41.5099467 L578.932272,41.9322997 L578.932272,41.9322997 L578.552505,42.3780559 C577.023208,44.2104304 575.375956,46.6502643 573.782073,50.2469702 C573.449573,51.1691577 573.140706,52.0630249 572.858402,52.9196911 L572.532573,53.9292658 C572.428339,54.2594597 572.328542,54.583133 572.23337,54.8997175 L571.961917,55.827636 C571.790448,56.4313127 571.63823,57.0043606 571.506761,57.5422326 L571.364908,58.1395748 L571.364908,58.1395748 L571.231633,58.7367704 L571.231633,58.7367704 L571.149866,59.1302203 L571.149866,59.1302203 L571.07398,59.5191493 L571.07398,59.5191493 L570.971583,60.0926105 L570.971583,60.0926105 L570.883461,60.6521563 L570.883461,60.6521563 L570.83295,61.016347 L570.83295,61.016347 L570.789246,61.3726892 L570.789246,61.3726892 L570.752533,61.7205176 L570.752533,61.7205176 L570.722996,62.0591667 L570.722996,62.0591667 L570.70082,62.3879708 L570.70082,62.3879708 L570.681762,62.8612622 L570.681762,62.8612622 L570.678798,63.1625426 L570.678798,63.1625426 L570.683841,63.4516489 L570.683841,63.4516489 L570.697077,63.7279155 C570.699976,63.772853 570.703225,63.8172278 570.706826,63.861026 L570.732698,64.1167854 C570.737726,64.1582219 570.743115,64.199054 570.748869,64.2392679 L570.787794,64.4730227 L570.787794,64.4730227 L570.835651,64.6912757 C571.184888,66.0931452 572.141963,66.4172047 573.953426,64.7761163 L574.231584,64.5151035 C574.279022,64.469108 574.327002,64.4218565 574.375527,64.3733352 L574.673256,64.0668588 L574.673256,64.0668588 L574.984263,63.7292414 L574.984263,63.7292414 L575.308732,63.3598175 C575.363943,63.2955594 575.419722,63.2299482 575.476073,63.1629702 L575.672298,62.9215069 L575.672298,62.9215069 L575.891417,62.6350464 L575.891417,62.6350464 L576.132359,62.3056052 L576.132359,62.3056052 L576.394055,61.9352002 L576.394055,61.9352002 L576.82317,61.3071967 L576.82317,61.3071967 L577.132066,60.8432048 L577.132066,60.8432048 L577.976368,59.5392998 L577.976368,59.5392998 L578.527013,58.6683484 L578.527013,58.6683484 L579.305118,57.4178204 L579.305118,57.4178204 L580.336282,55.7338948 L580.336282,55.7338948 L581.859198,53.2074372 L581.859198,53.2074372 L583.433092,50.5620875 L583.433092,50.5620875 L586.772264,44.8810076 L586.772264,44.8810076 L590.036918,39.2989133 L590.036918,39.2989133 L591.56251,36.7269408 L591.56251,36.7269408 L591.986516,36.0359189 L591.986516,36.0359189 L592.116073,35.8319702 L592.116073,35.8319702 C597.486073,27.5109702 607.112073,26.5919702 608.612073,28.7689702 C608.266693,28.9044902 607.671943,29.626893 606.923795,30.7681333 L606.594049,31.2823894 C606.537619,31.3722094 606.480477,31.4640437 606.422656,31.5578313 L606.067883,32.1435051 L606.067883,32.1435051 L605.698523,32.7731162 C605.635841,32.8815495 605.572621,32.9916911 605.508898,33.1034796 L605.120807,33.793485 L605.120807,33.793485 L604.722327,34.5200788 C604.655141,34.6440635 604.587593,34.7694502 604.519716,34.8961777 L604.1088,35.6721423 L604.1088,35.6721423 L603.691693,36.4773465 L603.691693,36.4773465 L603.270072,37.3088505 L603.270072,37.3088505 L602.845617,38.1637148 C602.774732,38.3079756 602.703798,38.4530872 602.632851,38.5989885 L601.99492,39.9317662 L601.99492,39.9317662 L601.361944,41.2972626 L601.361944,41.2972626 L600.945511,42.2208712 L600.945511,42.2208712 L600.535477,43.1516726 L600.535477,43.1516726 L600.133522,44.0867271 L600.133522,44.0867271 L599.741323,45.0230952 L599.741323,45.0230952 L599.360561,45.9578373 C599.298147,46.1133288 599.23628,46.2686301 599.174993,46.4236799 L598.814533,47.3504713 L598.814533,47.3504713 L598.469706,48.2682878 C598.413631,48.420346 598.358277,48.5719077 598.303679,48.7229118 L597.985449,49.6217542 C597.934017,49.7702826 597.883411,49.9181308 597.833666,50.0652377 L597.545811,50.938492 C595.837889,56.262654 595.404763,60.4041602 598.018073,60.2609702 C598.914882,60.2130151 599.944714,59.5030048 601.091481,58.2544009 L601.407123,57.9006118 C601.460209,57.8394523 601.513533,57.7772032 601.567095,57.713876 L601.891299,57.3210698 L601.891299,57.3210698 L602.22112,56.9029478 L602.22112,56.9029478 L602.556485,56.4600666 L602.556485,56.4600666 L602.897323,55.9929828 L602.897323,55.9929828 L603.24356,55.5022529 L603.24356,55.5022529 L603.595125,54.9884335 L603.595125,54.9884335 L603.951944,54.4520811 L603.951944,54.4520811 L604.313945,53.8937523 L604.313945,53.8937523 L604.681056,53.3140037 L604.681056,53.3140037 L605.053204,52.7133917 L605.053204,52.7133917 L605.430316,52.0924729 L605.430316,52.0924729 L606.005135,51.1242371 L606.005135,51.1242371 L606.590716,50.1134416 L606.590716,50.1134416 L607.186815,49.0619649 L607.186815,49.0619649 L607.793186,47.9716853 L607.793186,47.9716853 L608.203021,47.2242026 L608.203021,47.2242026 L609.03577,45.6822308 L609.03577,45.6822308 L609.885477,44.0812941 L609.885477,44.0812941 L611.190564,41.5790692 L611.190564,41.5790692 L612.757127,38.5248343 L612.757127,38.5248343 L614.368073,35.3479702 L614.368073,35.3479702 C617.609073,28.9629702 624.720073,26.0599702 629.316073,28.7209702 L629.260895,28.7895259 L629.260895,28.7895259 L629.124896,28.979903 L629.124896,28.979903 L628.956227,29.2387934 L628.956227,29.2387934 L628.756718,29.5631877 L628.756718,29.5631877 L628.403623,30.1660162 L628.403623,30.1660162 L627.991415,30.8993011 L627.991415,30.8993011 L627.686815,31.4556179 L627.686815,31.4556179 L627.189789,32.3837604 L627.189789,32.3837604 L626.461782,33.7803301 L626.461782,33.7803301 L625.874792,34.9338764 L625.874792,34.9338764 L625.259525,36.1670971 L625.259525,36.1670971 L624.836683,37.0284922 L624.836683,37.0284922 L624.187993,38.3719335 L624.187993,38.3719335 L623.527472,39.7679653 L623.527472,39.7679653 L623.083598,40.7228546 L623.083598,40.7228546 L622.417064,42.1839674 L622.417064,42.1839674 L621.974891,43.1728399 L621.974891,43.1728399 L621.536597,44.1700394 L621.536597,44.1700394 L621.104009,45.1725566 L621.104009,45.1725566 L620.678955,46.1773822 L620.678955,46.1773822 L620.263261,47.1815068 L620.263261,47.1815068 L619.858755,48.1819211 L619.858755,48.1819211 L619.467265,49.1756159 C619.403202,49.3405046 619.339759,49.5049879 619.276971,49.6690031 L618.90843,50.6469761 C618.788413,50.9707604 618.671325,51.292171 618.557473,51.6107062 L618.225928,52.5571842 L618.225928,52.5571842 L617.91562,53.4834006 C617.766081,53.940942 617.625191,54.3897568 617.493979,54.8281523 L617.244763,55.6905493 C616.026961,60.0693076 615.915683,63.2150202 618.045073,63.2599702 C617.000777,67.3900443 610.363527,68.2121259 607.740212,67.0980875 L607.49378,66.9854324 L607.49378,66.9854324 L607.287382,66.8828871 C607.25286,66.8649345 607.218304,66.8465406 607.183753,66.8276894 L606.97682,66.7089681 C605.567519,65.8584777 604.299712,64.186034 605.903073,60.5989702 C606.011907,60.3571369 606.121414,60.1206716 606.23095,59.8896594 L606.559004,59.2130674 C606.61348,59.103057 606.667802,58.9944311 606.72189,58.8872004 L607.042963,58.2606436 L607.042963,58.2606436 L607.505582,57.384708 L607.505582,57.384708 L608.193767,56.0994682 L608.193767,56.0994682 L608.428772,55.6479895 L608.428772,55.6479895 L608.634971,55.2330576 C608.793726,54.9026507 608.918448,54.6108452 608.999073,54.3589702 C609.386073,53.6329702 608.999073,52.8109702 608.322073,53.8269702 L607.75817,54.7092345 L607.75817,54.7092345 L607.249349,55.4794935 L607.249349,55.4794935 L606.80069,56.1385926 L606.80069,56.1385926 L606.471074,56.6112579 L606.471074,56.6112579 L606.117929,57.1071148 L606.117929,57.1071148 L605.742011,57.6232308 L605.742011,57.6232308 L605.344072,58.1566736 L605.344072,58.1566736 L604.924869,58.7045105 L604.924869,58.7045105 L604.485155,59.2638093 L604.485155,59.2638093 L604.025684,59.8316375 L604.025684,59.8316375 L603.547211,60.4050626 L603.547211,60.4050626 L603.050491,60.9811522 C599.848402,64.6319667 595.593801,68.2666607 591.149073,68.5329702 L590.967555,68.5435299 L590.967555,68.5435299 L590.604268,68.5579902 C590.543737,68.5596207 590.483229,68.5608482 590.422766,68.5616529 L590.060711,68.5612483 L590.060711,68.5612483 L589.700809,68.5497437 C584.204269,68.283375 579.842953,63.7666902 593.906073,39.5559702 C594.341073,39.0239702 593.567073,38.3959702 593.132073,39.1699702 C592.902628,39.5682652 592.668656,39.9790267 592.430493,40.4009045 L591.703767,41.698536 L591.703767,41.698536 L590.953909,43.0547627 L590.953909,43.0547627 L590.182933,44.4614823 L590.182933,44.4614823 L586.928112,50.4312467 L586.928112,50.4312467 L585.655048,52.7389357 L585.655048,52.7389357 L584.62933,54.5721196 L584.62933,54.5721196 L583.62413,56.3388131 L583.62413,56.3388131 L582.867149,57.6457678 L582.867149,57.6457678 L582.109002,58.9313075 L582.109002,58.9313075 L581.351015,60.1900952 L581.351015,60.1900952 L580.846434,61.0117891 L580.846434,61.0117891 L580.342906,61.8176397 L580.342906,61.8176397 L579.840825,62.6060655 L579.840825,62.6060655 L579.340584,63.3754853 L579.340584,63.3754853 L578.842575,64.1243175 L578.842575,64.1243175 L578.347192,64.8509809 C578.264868,64.9701562 578.182671,65.0883419 578.100607,65.205505 L577.609899,65.89595 C575.491031,68.8324216 573.473788,71.033113 571.702073,71.9189702 L571.364259,72.0803566 L571.364259,72.0803566 L571.020532,72.2325714 C570.905039,72.2817427 570.788662,72.3293278 570.671506,72.3752692 L570.317795,72.5081048 L570.317795,72.5081048 L569.960014,72.6307328 C569.900078,72.650301 569.839999,72.6694295 569.779789,72.688111 L569.417054,72.7947802 L569.417054,72.7947802 L569.051784,72.8903785 L569.051784,72.8903785 L568.684594,72.9745605 C568.62327,72.9876204 568.561891,73.0001901 568.50047,73.0122626 L568.131551,73.0786729 C568.070015,73.0887276 568.008464,73.0982707 567.946909,73.1072949 L567.577642,73.1551565 C567.454609,73.1689967 567.331665,73.1807039 567.208912,73.1902207 L566.841333,73.2121421 C562.500875,73.3924222 558.531114,70.7396437 559.512073,62.6789702 C559.672834,61.404116 559.958717,59.9558758 560.356767,58.3640141 L560.584931,57.4816614 L560.584931,57.4816614 L560.834876,56.5718951 C560.878322,56.4180426 560.922657,56.2630926 560.96787,56.1070674 L561.24961,55.1581936 L561.24961,55.1581936 L561.551962,54.1845898 C561.65613,53.8560528 561.763655,53.523573 561.87446,53.1873294 L562.216636,52.1674858 C562.275279,51.9956896 562.334723,51.8229971 562.394957,51.6494308 L562.765774,50.5977251 L562.765774,50.5977251 L563.155102,49.5261198 C563.221506,49.3459202 563.288662,49.1649362 563.356561,48.9831902 L563.772777,47.883748 L563.772777,47.883748 L564.206336,46.7670896 L564.206336,46.7670896 L564.656769,45.6342885 L564.656769,45.6342885 L565.123609,44.4864181 L565.123609,44.4864181 L565.606391,43.3245518 L565.606391,43.3245518 L566.104645,42.1497629 L566.104645,42.1497629 L566.617905,40.9631249 L566.617905,40.9631249 L567.145703,39.7657112 L567.145703,39.7657112 L567.687573,38.5585952 L567.687573,38.5585952 L568.243048,37.3428503 L568.243048,37.3428503 L568.811659,36.1195498 L568.811659,36.1195498 L569.39294,34.8897673 L569.39294,34.8897673 L569.986423,33.6545761 L569.986423,33.6545761 L570.591642,32.4150496 C570.693463,32.2081602 570.795755,32.0011349 570.898506,31.793996 L571.520451,30.5499792 L571.520451,30.5499792 L572.152963,29.3043107 L572.152963,29.3043107 L572.795576,28.0580637 L572.795576,28.0580637 L573.447821,26.8123118 L573.447821,26.8123118 L574.109232,25.5681284 L574.109232,25.5681284 L574.779341,24.3265867 L574.779341,24.3265867 L575.457681,23.0887604 L575.457681,23.0887604 L576.143784,21.8557227 L576.143784,21.8557227 L576.837184,20.628547 L576.837184,20.628547 L577.537414,19.4083068 C577.654662,19.205571 577.772175,19.003169 577.889944,18.801123 L578.599541,17.5932986 C578.718292,17.3927663 578.837279,17.1926348 578.956492,16.9929265 L579.674406,15.7999331 L579.674406,15.7999331 L580.397281,14.6181688 C580.518147,14.4222035 580.639201,14.2267508 580.760432,14.031833 L581.489871,12.868925 L581.489871,12.868925 L582.223103,11.7199296 C582.468093,11.3393692 582.713638,10.9613064 582.959659,10.5859202 L583.699073,9.46797018 L583.699073,9.46797018 Z M630.138073,45.7969702 C625.639073,34.9129702 635.169073,23.9319702 645.376073,28.2849702 C649.188312,29.9527015 647.226838,36.5499227 642.312477,36.4692754 L642.087073,36.4609702 L641.216073,35.9769702 C645.134073,31.1879702 639.910073,28.0919702 637.733073,31.6719702 C636.601833,33.5570003 637.104849,35.5768496 638.140445,37.8819746 L638.388381,38.419059 L638.388381,38.419059 L638.652216,38.9666825 L638.652216,38.9666825 L638.928943,39.5252559 L638.928943,39.5252559 L639.509033,40.676896 L639.509033,40.676896 L639.798318,41.2545698 C640.233605,42.1299194 640.671886,43.0454702 641.071073,44.0069702 L641.415391,44.8587588 C641.525725,45.1381736 641.631621,45.4131296 641.733087,45.6837942 L642.024199,46.4830808 C644.339492,53.0393069 643.890002,57.0180059 640.781073,61.0349702 C632.025073,72.3059702 614.175073,69.1609702 619.641073,57.6969702 C621.528073,53.7779702 625.011073,50.8279702 631.202073,51.1659702 C631.783073,51.8439702 631.154073,53.0039702 630.719073,53.2459702 C625.833073,55.9069702 625.059073,64.8559702 627.913073,64.3719702 C629.945073,64.0339702 631.783073,62.5829702 633.186073,59.0999702 C634.238996,56.5724592 633.53317,53.8395611 632.395027,51.0172244 L632.125308,50.364381 L632.125308,50.364381 L631.843864,49.708679 L631.843864,49.708679 L630.826884,47.4142248 C630.589985,46.8763077 630.357492,46.3369702 630.138073,45.7969702 Z M903.972023,27.1682452 C907.780884,27.1682452 911.661818,28.0091079 915.614826,29.6908332 L916.180031,29.9367999 L912.989602,37.9787921 L912.501264,37.7585934 C909.104255,36.2530487 906.155706,35.5002764 903.655617,35.5002764 C902.302102,35.5002764 901.317727,35.7375811 900.702492,36.2121905 C900.087258,36.6867999 899.779641,37.2756671 899.779641,37.9787921 C899.779641,38.7346514 900.170754,39.4114092 900.95298,40.0090655 L901.141116,40.1446682 C901.175891,40.1685242 901.212376,40.193008 901.25057,40.2181196 L901.500251,40.3763228 L901.500251,40.3763228 L901.790963,40.5495928 L901.790963,40.5495928 L902.303963,40.8377485 L902.303963,40.8377485 L902.697251,41.048686 L902.697251,41.048686 L903.364115,41.3933428 L903.364115,41.3933428 L904.396875,41.9056196 L904.396875,41.9056196 L905.593757,42.4781643 L905.593757,42.4781643 L906.599124,42.9471235 L906.599124,42.9471235 L907.320656,43.2785967 C910.642922,44.7727374 912.950051,46.3767413 914.242043,48.0906085 C915.534035,49.8044757 916.180031,51.9621905 916.180031,54.563753 C916.180031,56.954378 915.573586,59.0769366 914.360695,60.9314288 C913.147805,62.785921 911.398781,64.2273272 909.113625,65.2556475 C906.828469,66.2839678 904.147805,66.798128 901.071633,66.798128 C898.505227,66.798128 896.351906,66.6179522 894.611672,66.2576007 C893.045461,65.9332842 891.422297,65.3918341 889.74218,64.6332501 L889.180031,64.3723467 L889.180031,55.0910967 L889.84507,55.4226397 C891.62632,56.2846189 893.47007,56.9695147 895.37632,57.4773272 C897.520852,58.0486163 899.489602,58.3342608 901.28257,58.3342608 C902.829445,58.3342608 903.963234,58.0661944 904.683937,57.5300616 C905.404641,56.9939288 905.764992,56.3039874 905.764992,55.4602374 C905.764992,54.9328936 905.619973,54.4714678 905.329934,54.07596 C905.039895,53.6804522 904.574074,53.2805499 903.932473,52.876253 L903.737233,52.7591129 L903.737233,52.7591129 L903.350447,52.5462965 L903.350447,52.5462965 L902.850952,52.2889525 L902.850952,52.2889525 L902.455338,52.0926523 L902.455338,52.0926523 L901.513829,51.6406819 L901.513829,51.6406819 L900.676202,51.2497552 L900.676202,51.2497552 L898.804055,50.3977374 C896.290383,49.2551592 894.405129,48.1477374 893.148293,47.0754717 C891.891457,46.0032061 890.959816,44.7727374 890.353371,43.3840655 C889.746926,41.9953936 889.443703,40.3518389 889.443703,38.4534014 C889.443703,34.9026202 890.735695,32.1340655 893.31968,30.1477374 C895.903664,28.1614092 899.454445,27.1682452 903.972023,27.1682452 Z M820.28257,27.1155108 C826.417336,27.1155108 831.06675,28.7942217 834.230812,32.1516436 C837.394875,35.5090655 838.976906,40.4397296 838.976906,46.9436358 C838.976906,53.4299639 837.386086,58.360628 834.204445,61.735628 C831.022805,65.110628 826.364602,66.798128 820.229836,66.798128 C814.182961,66.798128 809.54673,65.1018389 806.321145,61.7092608 C803.095559,58.3166827 801.482766,53.3772296 801.482766,46.8909014 C801.482766,40.4748858 803.08677,35.5749835 806.294777,32.1911944 C809.502785,28.8074053 814.165383,27.1155108 820.28257,27.1155108 Z M708.485695,27.7219561 L708.485695,50.345003 L708.489163,50.7291508 C708.5354,53.2562554 709.04401,55.1057452 710.014992,56.2776202 C711.034523,57.5080889 712.537453,58.1233233 714.523781,58.1233233 C716.650734,58.1233233 718.193215,57.5124835 719.151223,56.2908038 C720.063611,55.1272993 720.541529,53.2582783 720.584976,50.6837406 L720.588234,50.2922686 L720.588234,27.7219561 L731.003273,27.7219561 L731.003273,50.9250811 L730.999089,51.394708 C730.912615,56.2130626 729.485787,59.9632586 726.718605,62.645296 C723.86216,65.4138507 719.744484,66.798128 714.365578,66.798128 C709.109719,66.798128 705.071145,65.4534014 702.249855,62.7639483 C699.516732,60.1585406 698.107465,56.4478568 698.022055,51.6318968 L698.017922,51.1623858 L698.017922,27.7219561 L708.485695,27.7219561 Z M433.6605,27.1682452 C437.637151,27.1682452 441.44563,27.9930914 445.085936,29.6427839 L445.604836,29.8840655 L442.414406,38.0842608 L441.702492,37.7590655 C440.515969,37.2317217 439.329445,36.7776202 438.142922,36.3967608 C436.719094,35.9397296 435.189797,35.7112139 433.555031,35.7112139 C431.076516,35.7112139 429.142922,36.7263507 427.75425,38.7566241 C426.365578,40.7868975 425.671242,43.5862139 425.671242,47.1545733 C425.671242,54.5725421 428.492531,58.2815264 434.135109,58.2815264 C435.840188,58.2815264 437.492531,58.0442217 439.092141,57.5696124 C440.425148,57.1741046 441.76426,56.7114581 443.109475,56.1816729 L443.917336,55.8557452 L443.917336,64.6623858 L443.431652,64.8706207 C440.335617,66.1556256 436.85884,66.798128 433.00132,66.798128 C427.182961,66.798128 422.722512,65.110628 419.619973,61.735628 C416.517434,58.360628 414.966164,53.4826983 414.966164,47.1018389 C414.966164,43.1116046 415.717629,39.6047686 417.220559,36.5813311 C418.723488,33.5578936 420.885598,31.2331866 423.706887,29.60721 C426.528176,27.9812335 429.846047,27.1682452 433.6605,27.1682452 Z M326.926758,27.1155108 C333.061523,27.1155108 337.710938,28.7942217 340.875,32.1516436 C344.039062,35.5090655 345.621094,40.4397296 345.621094,46.9436358 C345.621094,53.4299639 344.030273,58.360628 340.848633,61.735628 C337.666992,65.110628 333.008789,66.798128 326.874023,66.798128 C320.827148,66.798128 316.190918,65.1018389 312.965332,61.7092608 C309.739746,58.3166827 308.126953,53.3772296 308.126953,46.8909014 C308.126953,40.4748858 309.730957,35.5749835 312.938965,32.1911944 C316.146973,28.8074053 320.80957,27.1155108 326.926758,27.1155108 Z M132.758789,27.1682452 C136.567649,27.1682452 140.448583,28.0091079 144.401591,29.6908332 L144.966797,29.9367999 L141.776367,37.9787921 L141.288029,37.7585934 C137.89102,36.2530487 134.942472,35.5002764 132.442383,35.5002764 C131.088867,35.5002764 130.104492,35.7375811 129.489258,36.2121905 C128.874023,36.6867999 128.566406,37.2756671 128.566406,37.9787921 C128.566406,38.7346514 128.95752,39.4114092 129.739746,40.0090655 L129.927881,40.1446682 C129.962656,40.1685242 129.999141,40.193008 130.037335,40.2181196 L130.287017,40.3763228 L130.287017,40.3763228 L130.577728,40.5495928 L130.577728,40.5495928 L131.090728,40.8377485 L131.090728,40.8377485 L131.484016,41.048686 L131.484016,41.048686 L132.150881,41.3933428 L132.150881,41.3933428 L133.18364,41.9056196 L133.18364,41.9056196 L134.065915,42.329378 L134.065915,42.329378 L135.385889,42.9471235 L135.385889,42.9471235 L136.107422,43.2785967 C139.429688,44.7727374 141.736816,46.3767413 143.028809,48.0906085 C144.320801,49.8044757 144.966797,51.9621905 144.966797,54.563753 C144.966797,56.954378 144.360352,59.0769366 143.147461,60.9314288 C141.93457,62.785921 140.185547,64.2273272 137.900391,65.2556475 C135.615234,66.2839678 132.93457,66.798128 129.858398,66.798128 C127.291992,66.798128 125.138672,66.6179522 123.398438,66.2576007 C121.832227,65.9332842 120.209063,65.3918341 118.528945,64.6332501 L117.966797,64.3723467 L117.966797,55.0910967 L118.631836,55.4226397 C120.413086,56.2846189 122.256836,56.9695147 124.163086,57.4773272 C126.307617,58.0486163 128.276367,58.3342608 130.069336,58.3342608 C131.616211,58.3342608 132.75,58.0661944 133.470703,57.5300616 C134.191406,56.9939288 134.551758,56.3039874 134.551758,55.4602374 C134.551758,54.9328936 134.406738,54.4714678 134.116699,54.07596 C133.82666,53.6804522 133.36084,53.2805499 132.719238,52.876253 L132.523998,52.7591129 L132.523998,52.7591129 L132.278665,52.6221828 L132.278665,52.6221828 L131.983238,52.4654627 L131.983238,52.4654627 L131.637717,52.2889525 L131.637717,52.2889525 L131.242103,52.0926523 L131.242103,52.0926523 L130.300595,51.6406819 L130.300595,51.6406819 L129.158712,51.1095513 L129.158712,51.1095513 L127.59082,50.3977374 L127.59082,50.3977374 C125.077148,49.2551592 123.191895,48.1477374 121.935059,47.0754717 C120.678223,46.0032061 119.746582,44.7727374 119.140137,43.3840655 C118.533691,41.9953936 118.230469,40.3518389 118.230469,38.4534014 C118.230469,34.9026202 119.522461,32.1340655 122.106445,30.1477374 C124.69043,28.1614092 128.241211,27.1682452 132.758789,27.1682452 Z M859.543312,27.7219561 L873.570656,54.5110186 L873.728859,54.5110186 L873.617656,52.6604668 L873.617656,52.6604668 L873.524799,50.9020434 L873.524799,50.9020434 L873.452576,49.2718517 L873.452576,49.2718517 L873.415892,48.2562971 L873.415892,48.2562971 L873.388378,47.2977344 L873.388378,47.2977344 L873.370036,46.3961635 L873.370036,46.3961635 L873.360865,45.5515846 L873.360865,45.5515846 L873.359719,27.7219561 L882.640969,27.7219561 L882.640969,66.2707842 L868.982766,66.2707842 L854.902687,39.1125811 L854.665383,39.1125811 L854.787549,40.7324436 L854.787549,40.7324436 L854.892669,42.24913 L854.892669,42.24913 L854.953279,43.2029344 L854.953279,43.2029344 L855.006312,44.1108828 L855.006312,44.1108828 L855.071657,45.3868253 L855.071657,45.3868253 L855.10575,46.1801338 L855.10575,46.1801338 L855.132266,46.9275862 L855.132266,46.9275862 L855.151207,47.6291827 L855.151207,47.6291827 L855.162571,48.2849232 L855.162571,48.2849232 L855.166359,48.8948077 L855.166359,66.2707842 L845.937844,66.2707842 L845.937844,27.7219561 L859.543312,27.7219561 Z M210.911133,27.7219561 L210.911133,36.0803546 L198.439453,36.0803546 L198.439453,42.1448077 L209.988281,42.1448077 L209.988281,50.5032061 L198.439453,50.5032061 L198.439453,57.7805499 L210.911133,57.7805499 L210.911133,66.2707842 L188.024414,66.2707842 L188.024414,27.7219561 L210.911133,27.7219561 Z M228.076172,27.7219561 L228.076172,57.8596514 L242.920898,57.8596514 L242.920898,66.2707842 L217.661133,66.2707842 L217.661133,27.7219561 L228.076172,27.7219561 Z M271.977539,27.7219561 L271.977539,36.0803546 L259.505859,36.0803546 L259.505859,42.1448077 L271.054688,42.1448077 L271.054688,50.5032061 L259.505859,50.5032061 L259.505859,57.7805499 L271.977539,57.7805499 L271.977539,66.2707842 L249.09082,66.2707842 L249.09082,27.7219561 L271.977539,27.7219561 Z M305.121094,27.7219561 L305.121094,36.2385577 L295.734375,36.2385577 L295.734375,66.2707842 L285.319336,66.2707842 L285.319336,36.2385577 L275.90625,36.2385577 L275.90625,27.7219561 L305.121094,27.7219561 Z M98.9824219,27.7219561 L98.9824219,36.0803546 L86.5107422,36.0803546 L86.5107422,42.1448077 L98.0595703,42.1448077 L98.0595703,50.5032061 L86.5107422,50.5032061 L86.5107422,57.7805499 L98.9824219,57.7805499 L98.9824219,66.2707842 L76.0957031,66.2707842 L76.0957031,27.7219561 L98.9824219,27.7219561 Z M798.476906,27.7219561 L798.476906,36.2385577 L789.090187,36.2385577 L789.090187,66.2707842 L778.675148,66.2707842 L778.675148,36.2385577 L769.262062,36.2385577 L769.262062,27.7219561 L798.476906,27.7219561 Z M366.1875,27.7219561 L380.214844,54.5110186 L380.373047,54.5110186 L380.261844,52.6604668 L380.261844,52.6604668 L380.168986,50.9020434 L380.168986,50.9020434 L380.096764,49.2718517 L380.096764,49.2718517 L380.060079,48.2562971 L380.060079,48.2562971 L380.032566,47.2977344 L380.032566,47.2977344 L380.014224,46.3961635 C380.011931,46.2506511 380.01002,46.1075132 380.008492,45.9667501 L380.003906,45.1506671 L380.003906,27.7219561 L389.285156,27.7219561 L389.285156,66.2707842 L375.626953,66.2707842 L361.546875,39.1125811 L361.30957,39.1125811 L361.431737,40.7324436 L361.431737,40.7324436 L361.568108,42.7317642 L361.568108,42.7317642 L361.6505,44.1108828 L361.6505,44.1108828 L361.715844,45.3868253 L361.715844,45.3868253 L361.764143,46.559592 L361.764143,46.559592 L361.795394,47.6291827 L361.795394,47.6291827 L361.806759,48.2849232 L361.806759,48.2849232 L361.810547,48.8948077 L361.810547,66.2707842 L352.582031,66.2707842 L352.582031,27.7219561 L366.1875,27.7219561 Z M408.084961,27.7219561 L408.084961,66.2707842 L397.617188,66.2707842 L397.617188,27.7219561 L408.084961,27.7219561 Z M765.491555,27.7219561 L765.491555,36.2385577 L756.104836,36.2385577 L756.104836,66.2707842 L745.689797,66.2707842 L745.689797,36.2385577 L736.276711,36.2385577 L736.276711,27.7219561 L765.491555,27.7219561 Z M675.289406,27.7219561 L675.826485,27.7247308 C680.794301,27.7765246 684.504435,28.5534317 686.956887,30.0554522 C689.496926,31.6111163 690.766945,34.032503 690.766945,37.3196124 C690.766945,39.4817217 690.213234,41.3274249 689.105812,42.8567217 C688.063533,44.29606 686.709835,45.2526993 685.044718,45.7266396 L684.728859,45.8098467 L684.728859,46.0735186 L685.100849,46.1769423 C687.299916,46.8185195 688.907365,47.8387324 689.923195,49.2375811 C690.995461,50.7141436 691.531594,52.6301592 691.531594,54.985628 C691.531594,58.4836749 690.217629,61.239046 687.589699,63.2517413 C685.055624,65.1925546 681.634835,66.1976187 677.327331,66.2669334 L676.84507,66.2707842 L661.842141,66.2707842 L661.842141,27.7219561 L675.289406,27.7219561 Z M29.2148438,27.7219561 L29.2148438,36.2385577 L19.828125,36.2385577 L19.828125,66.2707842 L9.41308594,66.2707842 L9.41308594,36.2385577 L0,36.2385577 L0,27.7219561 L29.2148438,27.7219561 Z M45.1933594,27.7219561 L45.1933594,42.0129717 L57.2958984,42.0129717 L57.2958984,27.7219561 L67.7636719,27.7219561 L67.7636719,66.2707842 L57.2958984,66.2707842 L57.2958984,50.5559405 L45.1933594,50.5559405 L45.1933594,66.2707842 L34.7255859,66.2707842 L34.7255859,27.7219561 L45.1933594,27.7219561 Z M161.393555,27.7219561 L161.393555,44.4651202 L161.577906,44.1174531 L161.577906,44.1174531 L161.7979,43.7294683 L161.7979,43.7294683 L162.053538,43.3011659 C162.099114,43.2264223 162.146176,43.1499989 162.194723,43.0718955 L162.503825,42.5831165 L162.503825,42.5831165 L162.848571,42.0540198 L162.848571,42.0540198 L163.228959,41.4846054 L163.228959,41.4846054 L163.644991,40.8748734 L163.644991,40.8748734 L164.33587,39.8846796 L164.33587,39.8846796 L164.583984,39.5344561 L172.678711,27.7219561 L184.069336,27.7219561 L171.914062,44.9924639 L183.858398,66.2707842 L172.098633,66.2707842 L164.478516,51.5315264 L161.393555,53.3772296 L161.393555,66.2707842 L150.925781,66.2707842 L150.925781,27.7219561 L161.393555,27.7219561 Z M675.711281,50.1340655 L672.25718,50.1340655 L672.25718,58.2287921 L675.922219,58.2287921 C679.174172,58.2287921 680.800148,56.8576983 680.800148,54.1155108 C680.800148,52.8323077 680.36509,51.8479327 679.494973,51.1623858 C678.682863,50.5225421 677.530051,50.1812921 676.036535,50.1386358 L675.711281,50.1340655 Z M326.926758,35.6584796 C321.706055,35.6584796 319.095703,39.4201983 319.095703,46.9436358 C319.095703,54.3967608 321.688477,58.1233233 326.874023,58.1233233 C329.510742,58.1233233 331.466309,57.2180499 332.740723,55.407503 C334.015137,53.5969561 334.652344,50.7756671 334.652344,46.9436358 C334.652344,43.0940264 334.006348,40.2507647 332.714355,38.4138507 C331.422363,36.5769366 329.493164,35.6584796 326.926758,35.6584796 Z M820.28257,35.6584796 C815.061867,35.6584796 812.451516,39.4201983 812.451516,46.9436358 C812.451516,54.3967608 815.044289,58.1233233 820.229836,58.1233233 C822.866555,58.1233233 824.822121,57.2180499 826.096535,55.407503 C827.370949,53.5969561 828.008156,50.7756671 828.008156,46.9436358 C828.008156,43.0940264 827.36216,40.2507647 826.070168,38.4138507 C824.778176,36.5769366 822.848977,35.6584796 820.28257,35.6584796 Z M675.183937,35.6057452 L672.25718,35.6057452 L672.25718,42.5139483 L675.394875,42.5139483 C676.889016,42.5139483 678.044777,42.2063311 678.86216,41.5910967 C679.679543,40.9758624 680.088234,40.0617999 680.088234,38.8489092 C680.088234,36.7523183 678.551044,35.6722564 675.476664,35.6087233 L675.183937,35.6057452 Z M595.986073,18.1749702 C596.203753,17.8411902 596.41129,17.5137669 596.609017,17.1927003 L596.991495,16.5590426 C597.299494,16.0380574 597.580869,15.5347297 597.837175,15.0490592 L598.132809,14.4747301 C598.180109,14.3804211 598.22643,14.2868185 598.271787,14.1939221 L598.532439,13.6450193 C598.698616,13.2847344 598.849743,12.9357501 598.986615,12.5980662 L599.181333,12.1000158 L599.181333,12.1000158 L599.355266,11.6189161 L599.355266,11.6189161 L599.509011,11.1547671 C599.604911,10.8509846 599.68775,10.5585025 599.758324,10.2773207 L599.855086,9.86402329 L599.855086,9.86402329 L599.934047,9.46767635 C599.945756,9.40303106 599.956749,9.33909204 599.967038,9.27585928 L600.020416,8.90493793 L600.020416,8.90493793 L600.057485,8.55096691 C600.062337,8.49338427 600.066535,8.43650789 600.07009,8.38033777 L600.083814,8.05179216 C600.092102,7.62503152 600.060877,7.24347144 599.996505,6.90711144 L599.942109,6.66331643 C599.559504,5.1729564 598.464908,4.70241991 597.340491,5.25165212 L597.162803,5.34684751 C597.073934,5.39868247 596.985104,5.45687331 596.896647,5.52142 L596.720331,5.65898785 C596.661791,5.70766862 596.603517,5.7591742 596.545607,5.81350459 L596.373073,5.98497018 L596.373073,5.98497018 C595.647547,6.89381229 594.87014,7.96669872 594.054377,9.17524778 L593.505002,10.0007339 C593.412542,10.1415607 593.319645,10.2839846 593.226331,10.4279665 L592.661578,11.3102432 C592.566667,11.4603016 592.471374,11.6118402 592.37572,11.76482 L591.797594,12.6996826 L591.797594,12.6996826 L591.211666,13.6672665 L591.211666,13.6672665 L590.618826,14.6657029 L590.618826,14.6657029 L590.019966,15.6931232 L590.019966,15.6931232 L589.415975,16.7476586 L589.415975,16.7476586 L588.807744,17.8274402 L588.807744,17.8274402 L588.196163,18.9305994 L588.196163,18.9305994 L587.582124,20.0552675 L587.582124,20.0552675 L586.966516,21.1995755 L586.966516,21.1995755 L586.350231,22.3616549 L586.350231,22.3616549 L585.734159,23.5396368 L585.734159,23.5396368 L585.11919,24.7316525 L585.11919,24.7316525 L584.506215,25.9358332 C584.404269,26.13744 584.302442,26.3394757 584.200754,26.5419015 L583.59244,27.7608259 L583.59244,27.7608259 L582.988347,28.9872434 L582.988347,28.9872434 L582.389365,30.2192854 L582.389365,30.2192854 L581.796385,31.455083 L581.796385,31.455083 L581.210296,32.6927675 L581.210296,32.6927675 L580.631991,33.9304701 L580.631991,33.9304701 L580.062359,35.1663221 L580.062359,35.1663221 L579.65365,36.0620156 L579.65365,36.0620156 L579.420473,36.5576466 L579.420473,36.5576466 L579.212851,36.9810676 L579.212851,36.9810676 L578.940569,37.5098645 L578.940569,37.5098645 L578.417837,38.4799673 L578.417837,38.4799673 L578.209511,38.8906203 L578.209511,38.8906203 L578.065844,39.1958975 C578.041302,39.2498001 578.016407,39.3053988 577.991073,39.3629702 C577.701073,40.0399702 578.136073,40.1369702 578.523073,39.6529702 L578.623885,39.5195554 L578.623885,39.5195554 L578.865128,39.22095 L578.865128,39.22095 L579.15485,38.8823463 L579.15485,38.8823463 L579.487834,38.5065873 L579.487834,38.5065873 L580.262717,37.6549757 L580.262717,37.6549757 L581.381736,36.4321047 L581.381736,36.4321047 L581.619073,36.1699702 L581.619073,36.1219702 C586.892073,30.8009702 591.729073,24.7539702 595.986073,18.1749702 Z" transform="translate(.345)"/>
</svg>
