<svg xmlns="http://www.w3.org/2000/svg" width="1634" height="575" viewBox="0 0 1634 575">
  <g fill="none" fill-rule="evenodd">
    <rect width="1634" height="575" fill="#F1F1F1" fill-rule="nonzero"/>
    <g transform="translate(1 29)">
      <text fill="#0A0B09" fill-rule="nonzero" font-family="OpenSans, Open Sans" font-size="30" transform="translate(976 414)">
        <tspan x="0" y="32">Couleurs: #0047dd;</tspan>
      </text>
      <text fill="#0A0B09" fill-rule="nonzero" font-family="OpenSans, Open Sans" font-size="30" transform="translate(976 464)">
        <tspan x="0" y="32">Contour: 1px;</tspan>
      </text>
      <text fill="#0A0B09" fill-rule="nonzero" font-family="OpenSans, Open Sans" font-size="30" transform="translate(976 364)">
        <tspan x="0" y="32">Police de caractère: Open Sans</tspan>
      </text>
      <text fill="#0A0B09" fill-rule="nonzero" font-family="OpenSans-Light, Open Sans" font-size="21" font-weight="300" transform="translate(21 444)">
        <tspan x="0" y="22">3rem</tspan>
      </text>
      <text fill="#0A0B09" fill-rule="nonzero" font-family="OpenSans-Light, Open Sans" font-size="21" font-weight="300" transform="translate(204 507)">
        <tspan x="0" y="22">12rem</tspan>
      </text>
      <polygon fill="#0047DD" fill-rule="nonzero" points="91 500 379 500 379 428 91 428"/>
      <polygon stroke="#334F91" stroke-width="1.008" points="91 500 379 500 379 428 91 428"/>
      <text fill="#FFF" fill-rule="nonzero" font-family="OpenSans, Open Sans" font-size="27" transform="translate(159.281 442)">
        <tspan x=".461" y="29">BORDURES</tspan>
      </text>
      <polygon fill="#0047DD" fill-rule="nonzero" points="451 500 739 500 739 428 451 428"/>
      <polygon stroke="#334F91" stroke-width="1.008" points="451 499 739 499 739 427 451 427"/>
      <text fill="#FFF" fill-rule="nonzero" font-family="OpenSans, Open Sans" font-size="27" transform="translate(519.281 445)">
        <tspan x=".461" y="29">BORDURES</tspan>
      </text>
      <text fill="#0A0B09" fill-rule="nonzero" font-family="OpenSans-Light, Open Sans" font-size="21" font-weight="300" transform="translate(799 408)">
        <tspan x="0" y="22">0.80rem</tspan>
      </text>
      <g fill="#0A0B09" fill-rule="nonzero" font-family="OpenSans-Light, Open Sans" font-size="21" font-weight="300" transform="translate(421 336)">
        <text>
          <tspan x="0" y="22">0.80re</tspan>
        </text>
        <text transform="translate(60.231)">
          <tspan x="0" y="22">m</tspan>
        </text>
        <text transform="translate(278.558)">
          <tspan x="0" y="22">0.80rem</tspan>
        </text>
      </g>
      <text fill="#0A0B09" fill-rule="nonzero" font-family="OpenSans-Light, Open Sans" font-size="21" font-weight="300" transform="translate(799 471)">
        <tspan x="0" y="22">0.80rem</tspan>
      </text>
      <line x1="749" x2="785" y1="427.5" y2="427.5" fill="#FFFFFE" fill-rule="nonzero"/>
      <line x1="749" x2="785" y1="427.5" y2="427.5" stroke="#0A0B09" stroke-width="1.407"/>
      <line x1="749" x2="785" y1="436.5" y2="436.5" fill="#FFFFFE" fill-rule="nonzero"/>
      <path stroke="#0A0B09" stroke-width="1.407" d="M749,437.468481 L785,437.468481 M767,428 L767,437.468481"/>
      <line x1="749" x2="785" y1="490.5" y2="490.5" fill="#FFFFFE" fill-rule="nonzero"/>
      <line x1="749" x2="785" y1="490.5" y2="490.5" stroke="#0A0B09" stroke-width="1.407"/>
      <line x1="749" x2="785" y1="499.5" y2="499.5" fill="#FFFFFE" fill-rule="nonzero"/>
      <path stroke="#0A0B09" stroke-width="1.407" d="M749,500.468481 L785,500.468481 M767,491 L767,500.468481"/>
      <line x1="739.5" x2="739.5" y1="383" y2="419" fill="#FFFFFE" fill-rule="nonzero"/>
      <line x1="739.5" x2="739.5" y1="383" y2="419" stroke="#0A0B09" stroke-width="1.414"/>
      <line x1="730.5" x2="730.5" y1="383" y2="419" fill="#FFFFFE" fill-rule="nonzero"/>
      <path stroke="#0A0B09" stroke-width="1.414" d="M730.526316,383 L730.526316,419 M740,401 L730.526316,401"/>
      <line x1="460.5" x2="460.5" y1="383" y2="419" fill="#0A0B09" fill-rule="nonzero"/>
      <line x1="460.5" x2="460.5" y1="383" y2="419" stroke="#0A0B09" stroke-width="1.414"/>
      <line x1="451.5" x2="451.5" y1="383" y2="419" fill="#0A0B09" fill-rule="nonzero"/>
      <line x1="451.5" x2="451.5" y1="383" y2="419" stroke="#0A0B09" stroke-width="1.414"/>
      <line x1="460" x2="451" y1="400.5" y2="400.5" fill="#0A0B09" fill-rule="nonzero"/>
      <line x1="460" x2="451" y1="400.5" y2="400.5" stroke="#0A0B09" stroke-width="1.414"/>
      <text fill="#0A0B09" fill-rule="nonzero" font-family="OpenSans, Open Sans" font-size="45" transform="translate(976 241)">
        <tspan x="0" y="48">Détails</tspan>
      </text>
      <text fill="#0A0B09" fill-rule="nonzero" font-family="OpenSans, Open Sans" font-size="45" transform="translate(462 241)">
        <tspan x="0" y="48">Rembourrage</tspan>
      </text>
      <text fill="#0A0B09" fill-rule="nonzero" font-family="OpenSans, Open Sans" font-size="45" transform="translate(30 241)">
        <tspan x="0" y="48">Dimensions</tspan>
      </text>
      <text fill="#0A0B09" fill-rule="nonzero" font-family="OpenSans, Open Sans" font-size="93" transform="translate(16)">
        <tspan x="0" y="99">Anatomie d’un bouton texte</tspan>
      </text>
      <line x1="2" x2="1613" y1="112.5" y2="112.5" fill="#FFFFFE" fill-rule="nonzero"/>
      <line x2="1632.5" y1="134.5" y2="134.5" stroke="#0A0B09" stroke-width="3"/>
      <text fill="#0A0B09" fill-rule="nonzero" font-family="OpenSans, Open Sans" font-size="60" transform="translate(30 133)">
        <tspan x="0" y="64">texte</tspan>
      </text>
    </g>
  </g>
</svg>
