<svg xmlns="http://www.w3.org/2000/svg" width="641" height="76" viewBox="0 0 641 76">
  <path fill="#F1644C" fill-rule="evenodd" d="M343.674373,11.5489664 C346.411362,7.49944753 351.20061,6.90760469 353.564695,8.40298998 C351.778447,9.50209602 350.012976,11.8386177 348.337184,14.8447753 L348.02404,15.4161385 C347.97203,15.5126274 347.920112,15.6097356 347.868288,15.7074457 L347.558487,16.3007914 L347.558487,16.3007914 L347.25104,16.9077523 L347.25104,16.9077523 L348.404546,16.7641788 L348.404546,16.7641788 L349.56259,16.6244028 L349.56259,16.6244028 L350.723826,16.4886334 L350.723826,16.4886334 L351.886908,16.3570795 L351.886908,16.3570795 L353.632046,16.1681105 C353.825844,16.1476932 354.019579,16.1274733 354.213223,16.1074551 L355.373764,15.9898027 L355.373764,15.9898027 L356.530766,15.8772022 L356.530766,15.8772022 L357.682882,15.7698627 L357.682882,15.7698627 L358.828766,15.6679933 L358.828766,15.6679933 L359.967073,15.5718031 L359.967073,15.5718031 L361.096454,15.4815011 L361.096454,15.4815011 L362.215566,15.3972964 L362.215566,15.3972964 L363.32306,15.3193981 L363.32306,15.3193981 L364.417592,15.2480153 L364.417592,15.2480153 L365.497814,15.183357 L365.497814,15.183357 L366.562381,15.1256323 L366.562381,15.1256323 L367.609946,15.0750503 L367.609946,15.0750503 L368.639163,15.03182 L368.639163,15.03182 L369.648686,14.9961506 L369.648686,14.9961506 L370.637168,14.968251 L370.637168,14.968251 L371.603264,14.9483305 C371.762339,14.9456869 371.920426,14.9433845 372.077496,14.9414277 L373.007487,14.9338676 C374.077717,14.9299662 375.095368,14.9434223 376.050823,14.97573 C377.446136,15.0209201 377.424959,15.5716372 376.870817,15.9905874 L376.767675,16.0630222 L376.767675,16.0630222 L376.654546,16.1319431 C376.634919,16.1430939 376.614921,16.1540658 376.594574,16.1648426 L376.46849,16.2270333 L376.46849,16.2270333 L376.335117,16.2837644 L376.335117,16.2837644 L376.195535,16.3342574 C376.148093,16.3499623 376.099795,16.3644978 376.050823,16.3777342 C371.030578,16.3962564 365.110363,16.9082223 358.950515,17.7500637 L357.577983,17.9425032 C357.34866,17.9754593 357.119075,18.0088512 356.889262,18.0426708 L355.507917,18.2506525 C355.277326,18.2861491 355.046574,18.3220566 354.815694,18.3583668 L353.429158,18.5809933 C352.041628,18.8083185 350.651928,19.0495405 349.267301,19.3028644 L347.884635,19.5601558 C347.654562,19.6036879 347.424697,19.6475395 347.195074,19.6917023 L345.820502,19.9603476 L345.820502,19.9603476 L345.513642,20.6648229 C345.462802,20.7829891 345.412115,20.9015182 345.361583,21.0203897 L345.060283,21.737561 C345.010384,21.8577191 344.960645,21.9781782 344.911069,22.0989176 L344.61559,22.8265521 L344.61559,22.8265521 L344.324136,23.5599216 L344.324136,23.5599216 L344.036824,24.2980336 L344.036824,24.2980336 L343.753771,25.0398957 L343.753771,25.0398957 L343.475093,25.7845155 L343.475093,25.7845155 L343.200906,26.5309006 L343.200906,26.5309006 L342.931327,27.2780586 L342.931327,27.2780586 L342.535851,28.3980739 L342.535851,28.3980739 L342.151395,29.5142458 L342.151395,29.5142458 L341.901408,30.2545713 L341.901408,30.2545713 L341.536192,31.3568947 L341.536192,31.3568947 L341.183044,32.4464431 L341.183044,32.4464431 L340.842355,33.5198671 L340.842355,33.5198671 L340.622345,34.2248711 L340.622345,34.2248711 L340.199926,35.6049445 L340.199926,35.6049445 L339.89897,36.6098991 L339.89897,36.6098991 L339.519588,37.9033368 L339.519588,37.9033368 L339.08185,39.4342341 L339.08185,39.4342341 L338.761985,40.5805563 L338.761985,40.5805563 L338.401589,41.9024388 L338.401589,41.9024388 L338.029347,43.3054 L338.029347,43.3054 L337.725781,44.4830934 L337.725781,44.4830934 L337.640396,44.8209672 C337.592961,45.0063103 337.551074,45.1850482 337.51442,45.3571685 L337.447999,45.6925821 L337.447999,45.6925821 L337.394975,46.010327 C337.356214,46.2677464 337.330825,46.5067383 337.317351,46.7272457 L337.306806,46.9829785 C337.269214,48.8343757 338.149407,49.1866936 338.884482,47.9984999 L339.256618,47.3859623 L339.256618,47.3859623 L339.626439,46.765342 L339.626439,46.765342 L339.993705,46.1377546 L339.993705,46.1377546 L340.358172,45.5043159 L340.358172,45.5043159 L340.719599,44.8661414 L340.719599,44.8661414 L341.077744,44.2243467 L341.077744,44.2243467 L341.432365,43.5800476 L341.432365,43.5800476 L341.957159,42.6113432 L341.957159,42.6113432 L342.472664,41.6432791 L342.472664,41.6432791 L342.81077,41.0001181 L342.81077,41.0001181 L343.472537,39.7241326 L343.472537,39.7241326 L344.425452,37.8527297 L344.425452,37.8527297 L346.937118,32.8262027 L346.937118,32.8262027 L347.412145,31.8861785 L347.412145,31.8861785 L347.852752,31.0298487 L347.852752,31.0298487 L348.159455,30.4478949 L348.159455,30.4478949 L348.444892,29.9218048 L348.444892,29.9218048 L348.622965,29.6039728 L348.622965,29.6039728 L348.790981,29.3137582 L348.790981,29.3137582 L348.948699,29.0522767 C348.974114,29.0111528 348.99909,28.9712726 349.023621,28.9326594 C350.404128,26.784704 351.964402,25.2532504 353.503771,24.2010891 L353.821897,23.9901945 C354.827934,23.3437328 355.819056,22.898946 356.738827,22.617246 L357.026843,22.5336643 C357.312356,22.4554138 357.590161,22.3930217 357.858482,22.3452728 L358.123574,22.30236 L358.123574,22.30236 L358.381949,22.2689394 L358.381949,22.2689394 L358.63321,22.2447409 C358.674472,22.2414613 358.715421,22.2385547 358.756049,22.2360155 L358.9959,22.2251437 L358.9959,22.2251437 L359.22765,22.222819 L359.22765,22.222819 L359.450905,22.2287712 C359.596822,22.2354383 359.736811,22.2474433 359.870347,22.2644262 L360.065746,22.293589 L360.065746,22.293589 L360.251068,22.3299485 C360.491273,22.3831057 360.703557,22.4547342 360.883707,22.5419536 L361.012729,22.6102463 C361.197027,22.7169354 361.339322,22.8424453 361.433618,22.9826746 C360.978523,23.5407909 360.461249,24.3329512 359.910945,25.2902395 L359.633176,25.7823252 C359.586467,25.8665266 359.539563,25.951795 359.49248,26.0380904 L359.207972,26.5678687 C359.160241,26.6581129 359.112365,26.7493044 359.064362,26.8414034 L358.774936,27.4045671 L358.774936,27.4045671 L358.483245,27.9875947 C358.434486,28.086315 358.385666,28.1857832 358.336802,28.2859593 L358.04323,28.8951936 C357.994259,28.9980423 357.945277,29.1015193 357.896303,29.2055847 L357.602672,29.8367183 C357.504912,30.0492369 357.407314,30.26379 357.310013,30.4800585 L357.019138,31.133691 L357.019138,31.133691 L356.730855,31.7957015 L356.730855,31.7957015 L356.445974,32.4641756 L356.445974,32.4641756 L356.165305,33.1371989 L356.165305,33.1371989 L355.889658,33.8128572 L355.889658,33.8128572 L355.619842,34.4892362 L355.619842,34.4892362 L355.356667,35.1644214 L355.356667,35.1644214 L355.100943,35.8364985 C355.058988,35.948146 355.017377,36.0595842 354.976127,36.1707733 L354.733098,36.8345989 L354.733098,36.8345989 L354.499543,37.4905307 C354.461452,37.5990884 354.423789,37.7072375 354.386572,37.8149381 L354.168748,38.4554396 C354.062644,38.7726799 353.960852,39.0851653 353.863827,39.3918191 L353.67627,39.9970318 C353.646115,40.0964983 353.616524,40.1952371 353.587513,40.2932082 L353.420545,40.8715047 C353.393923,40.9662458 353.367915,41.0601396 353.342537,41.1531461 L353.197981,41.7002191 L353.197981,41.7002191 L353.069378,42.2240834 C352.949021,42.7357054 352.853807,43.2096429 352.787382,43.6372815 C352.771256,43.7413531 352.756647,43.8470819 352.743812,43.9536822 L352.725922,44.1141379 C352.701177,44.3555073 352.68606,44.5992993 352.683482,44.8365636 L352.683653,44.9936745 L352.688018,45.1553261 L352.688018,45.1553261 L352.696879,45.3135412 L352.696879,45.3135412 L352.710455,45.4676449 L352.710455,45.4676449 L352.728967,45.6169627 C352.732476,45.6414126 352.7362,45.6656351 352.740143,45.6896159 L352.76647,45.8304894 L352.76647,45.8304894 L352.798282,45.96489 C352.804054,45.9867132 352.810062,46.0082386 352.816314,46.0294521 L352.856765,46.1528781 C352.864003,46.1727879 352.871493,46.1923576 352.879239,46.2115733 L352.928823,46.3225066 L352.928823,46.3225066 L352.984771,46.4242679 C353.369588,47.0544459 354.171607,47.0605897 355.662304,45.6088314 L355.897112,45.3738693 C356.017269,45.2505247 356.141584,45.1183004 356.27018,44.976817 C357.763155,43.3262137 359.268788,40.7174044 360.680332,37.8273186 L361.031197,37.0993289 L361.031197,37.0993289 L361.37777,36.3619699 L361.37777,36.3619699 L361.719682,35.6175919 C361.776258,35.4930745 361.832624,35.3683627 361.888774,35.2435053 L362.388038,34.1171808 L362.388038,34.1171808 L362.713741,33.3658486 L362.713741,33.3658486 L363.190659,32.2440526 L363.190659,32.2440526 L363.652503,31.1355508 L363.652503,31.1355508 L364.242682,29.6919392 L364.242682,29.6919392 L365.196736,27.3129807 L365.196736,27.3129807 C367.000179,22.8268248 373.376199,19.8044978 375.646414,21.6115827 C375.56212,21.6397599 375.45701,21.7393079 375.333077,21.9042001 L375.247689,22.0237428 L375.247689,22.0237428 L375.156854,22.1622499 L375.156854,22.1622499 L375.060705,22.3193247 C375.044245,22.3470291 375.027568,22.3754906 375.010678,22.404701 L374.852988,22.6875901 L374.852988,22.6875901 L374.684224,23.009578 L374.684224,23.009578 L374.504832,23.3693256 L374.504832,23.3693256 L374.37955,23.6294734 L374.37955,23.6294734 L374.249872,23.9054113 L374.249872,23.9054113 L373.907305,24.6617335 L373.907305,24.6617335 L373.615437,25.3318942 L373.615437,25.3318942 L373.463926,25.6875844 L373.463926,25.6875844 L373.069933,26.633739 L373.069933,26.633739 L372.740172,27.4459448 L372.740172,27.4459448 L372.223712,28.7489503 L372.223712,28.7489503 L371.866392,29.6694557 L371.866392,29.6694557 L371.219606,31.3693016 L371.219606,31.3693016 L370.64709,32.9054673 L370.64709,32.9054673 L369.76506,35.3221625 L369.76506,35.3221625 L369.066478,37.274734 L369.066478,37.274734 L368.161996,39.8491767 L368.161996,39.8491767 L367.582414,41.5252658 L367.582414,41.5252658 L367.106593,42.9165805 C366.711943,44.0763013 366.322586,45.2348707 365.943188,46.3781772 C361.588566,59.2757143 355.213189,68.6221944 346.442223,73.3884935 C346.148251,73.547237 345.827384,73.7000897 345.485253,73.8453218 L345.136243,73.9879495 C344.780562,74.1279089 344.405493,74.2596709 344.016667,74.3815057 L343.623464,74.4999672 C343.557236,74.5191379 343.490677,74.5380169 343.423815,74.556596 L343.0192,74.6644094 C342.951226,74.6817574 342.883,74.6987896 342.814548,74.7154979 L342.401338,74.8117982 C338.869563,75.5962322 334.886189,75.4967622 333.908782,73.4509623 C332.260288,70.055111 336.925449,63.3883459 344.638781,60.3660189 C344.659498,60.3591495 344.687509,60.3480424 344.722006,60.333126 L344.918281,60.2417355 L344.918281,60.2417355 L345.287827,60.0548828 L345.287827,60.0548828 L345.745004,59.8125978 L345.745004,59.8125978 L346.250949,59.5354462 C346.294064,59.5114688 346.337281,59.4873423 346.380501,59.4631205 C346.722544,59.244802 346.753405,58.9646587 346.22491,59.0889522 C346.069319,59.1514209 345.882867,59.1205085 345.727276,59.0580398 L344.641522,59.2880484 L344.641522,59.2880484 L343.563905,59.5216459 L343.563905,59.5216459 L342.49372,59.7595979 L342.49372,59.7595979 L341.430261,60.0026701 C341.25354,60.0436514 341.077069,60.0848779 340.900835,60.1263655 L339.846145,60.3785535 C339.495449,60.463746 339.14558,60.5501109 338.796421,60.6377757 L337.750958,60.9047977 C329.576346,63.0290186 321.729051,65.9416169 312.685016,71.2986062 L312.106098,71.6438774 C311.608463,71.955577 310.582334,72.1732515 310.551473,71.5814086 C310.526817,70.7770153 310.921543,70.3540449 311.437331,69.9692321 L311.613335,69.8419036 L311.613335,69.8419036 L311.888785,69.6500303 L311.888785,69.6500303 C313.961965,68.2106865 316.61771,66.7577838 319.579159,65.3543485 L320.394199,64.9728672 C320.668267,64.8461472 320.944653,64.7198833 321.223149,64.594123 L322.064762,64.2183999 C322.347272,64.093694 322.631684,63.9695389 322.91779,63.8459821 L323.780985,63.4771537 L323.780985,63.4771537 L324.653098,63.1121988 L324.653098,63.1121988 L325.532882,62.7514015 C325.680083,62.6916308 325.827551,62.6320453 325.975261,62.5726507 L326.86421,62.2186226 C327.012783,62.1600156 327.161544,62.1016115 327.31047,62.0434162 L328.205777,61.6967964 L328.205777,61.6967964 L329.103763,61.3554708 L329.103763,61.3554708 L330.003179,61.0197233 L330.003179,61.0197233 L330.902778,60.6898382 L330.902778,60.6898382 L331.80131,60.3660994 L331.80131,60.3660994 L332.697529,60.0487913 L332.697529,60.0487913 L333.590186,59.7381977 L333.590186,59.7381977 L334.478033,59.434603 L334.478033,59.434603 L335.359822,59.1382911 L335.359822,59.1382911 L336.234306,58.8495463 L336.234306,58.8495463 L337.100235,58.5686525 L337.100235,58.5686525 L338.380359,58.1626543 L338.380359,58.1626543 L339.634217,57.7759192 L339.634217,57.7759192 L340.453449,57.5292711 L340.453449,57.5292711 L341.654168,57.1767722 L341.654168,57.1767722 L342.434075,56.953836 L342.434075,56.953836 L343.196067,56.7408819 L343.196067,56.7408819 L343.938896,56.5381938 L343.938896,56.5381938 L344.661315,56.346056 L344.661315,56.346056 L345.362075,56.1647525 L345.362075,56.1647525 L346.039929,55.9945675 L346.039929,55.9945675 L346.693628,55.835785 L346.693628,55.835785 L347.321924,55.6886892 L347.321924,55.6886892 L347.92357,55.5535642 L347.92357,55.5535642 L348.497316,55.4306941 L348.497316,55.4306941 L349.041916,55.320363 L349.041916,55.320363 L349.55612,55.2228551 L349.55612,55.2228551 L350.038682,55.1384544 C350.116403,55.1254957 350.192753,55.1130949 350.267707,55.101258 C352.693513,54.4160341 353.688782,56.4098812 351.543296,57.8743541 C337.018675,67.6561832 340.066846,74.4787981 344.172008,71.3321778 C344.590421,71.0084345 345.027848,70.618988 345.481379,70.1678438 L345.786088,69.8579845 C345.83726,69.8048326 345.888623,69.7509299 345.940172,69.696282 L346.25168,69.3594961 C346.513086,69.0714622 346.778964,68.7650727 347.048816,68.4410144 L347.374514,68.0437074 C347.483695,67.908474 347.59348,67.7704576 347.703836,67.6297021 L348.036591,67.1992621 C348.092325,67.1261672 348.148195,67.0523986 348.204195,66.9779616 L348.541739,66.5233644 L348.541739,66.5233644 L348.882237,66.0529919 C348.939223,65.9732966 348.996323,65.8929549 349.053534,65.8119724 L349.398104,65.3184317 L349.398104,65.3184317 L349.74515,64.8097751 C349.803186,64.723754 349.861318,64.6371141 349.919541,64.5498608 L350.269941,64.019025 L350.269941,64.019025 L350.622337,63.4737328 L350.622337,63.4737328 L350.97654,62.9142478 L350.97654,62.9142478 L351.332356,62.3408339 L351.332356,62.3408339 L351.689595,61.7537547 L351.689595,61.7537547 L352.048066,61.153274 L352.048066,61.153274 L352.407577,60.5396556 L352.407577,60.5396556 L352.767936,59.9131632 L352.767936,59.9131632 L353.128953,59.2740606 L353.128953,59.2740606 L353.490435,58.6226115 L353.490435,58.6226115 L353.852192,57.9590796 L353.852192,57.9590796 L354.214032,57.2837288 L354.214032,57.2837288 L354.575764,56.5968226 L354.575764,56.5968226 L354.937196,55.898625 L354.937196,55.898625 L355.298137,55.1893996 L355.298137,55.1893996 L355.658396,54.4694102 L355.658396,54.4694102 L356.017781,53.7389206 C356.077595,53.6163119 356.137364,53.4932768 356.197086,53.3698206 L356.554801,52.624075 L356.554801,52.624075 L356.911164,51.8684886 L356.911164,51.8684886 L357.265983,51.103325 L357.265983,51.103325 L357.619067,50.328848 C357.677759,50.199007 357.736371,50.068789 357.794898,49.9381994 L358.145021,49.1502468 C358.203196,49.0181929 358.261278,48.8857784 358.319264,48.7530087 L358.665995,47.952174 L358.665995,47.952174 L359.010225,47.1430808 L359.010225,47.1430808 L359.351763,46.325993 L359.351763,46.325993 L359.690417,45.5011743 L359.690417,45.5011743 L360.025997,44.6688883 L360.025997,44.6688883 L360.35831,43.829399 L360.35831,43.829399 L360.687166,42.9829699 L360.687166,42.9829699 C360.811254,42.7021827 360.220393,42.6403579 359.940715,43.2940255 C359.731913,43.707511 359.432658,44.1797098 359.064586,44.6854104 L358.809247,45.0272307 C358.676717,45.2003458 358.537075,45.3765608 358.391123,45.5549419 L358.09104,45.9143158 C357.423658,46.698018 356.647802,47.5107066 355.828672,48.2764011 L355.447777,48.6261851 C353.658144,50.2403561 351.714296,51.5822922 350.267707,51.8928129 C344.801078,53.0534754 343.29292,49.0427529 347.347095,38.6192977 L347.657602,37.8354424 C347.978331,37.0398209 348.329797,36.2088447 348.712653,35.3420094 L349.105996,34.4632023 L349.105996,34.4632023 L349.520411,33.5603771 C349.591244,33.4078984 349.662961,33.2544144 349.735565,33.0999225 L350.181858,32.1608597 C350.486515,31.5267307 350.80546,30.8764027 351.138888,30.2097262 C351.37849,29.6999585 350.954526,29.3920399 350.617364,29.8984184 L350.502342,30.0827168 L350.502342,30.0827168 L350.411133,30.2391749 L350.411133,30.2391749 L350.30575,30.4285911 L350.30575,30.4285911 L350.054423,30.9011834 L350.054423,30.9011834 L349.66926,31.6545386 L349.66926,31.6545386 L349.011204,32.9769835 L349.011204,32.9769835 L346.119295,38.8782364 L346.119295,38.8782364 L345.096324,40.9408906 L345.096324,40.9408906 L344.195088,42.7331144 L344.195088,42.7331144 L343.588687,43.9222452 L343.588687,43.9222452 L342.982394,45.0948947 L342.982394,45.0948947 L342.380126,46.2408342 L342.380126,46.2408342 L341.933424,47.0766074 L341.933424,47.0766074 L341.492842,47.8872876 L341.492842,47.8872876 L341.203338,48.4116695 L341.203338,48.4116695 L340.77663,49.1709388 L340.77663,49.1709388 L340.497904,49.6570512 L340.497904,49.6570512 L340.224347,50.1256184 L340.224347,50.1256184 L339.956449,50.5753618 C339.912298,50.6486793 339.868403,50.7211592 339.824775,50.7927749 L339.566282,51.2118852 L339.566282,51.2118852 L339.314671,51.6089752 L339.314671,51.6089752 L339.070433,51.9827663 C339.030368,52.0430523 338.990631,52.1023141 338.951232,52.1605253 L338.71897,52.4969709 C338.604947,52.6586765 338.494148,52.8104463 338.386848,52.9515612 C335.123466,57.207961 328.476212,57.3117506 330.214496,46.7335611 L330.301707,46.2292694 L330.301707,46.2292694 L330.373192,45.8484041 L330.373192,45.8484041 L330.499033,45.2289498 L330.499033,45.2289498 L330.646699,44.5544051 L330.646699,44.5544051 L330.815617,43.827805 L330.815617,43.827805 L331.005212,43.052184 L331.005212,43.052184 L331.214912,42.2305771 L331.214912,42.2305771 L331.444141,41.3660188 L331.444141,41.3660188 L331.692325,40.461544 L331.692325,40.461544 L331.958892,39.5201875 L331.958892,39.5201875 L332.243266,38.5449838 L332.243266,38.5449838 L332.544875,37.5389679 L332.544875,37.5389679 L332.863143,36.5051744 L332.863143,36.5051744 L333.084294,35.8020453 L333.084294,35.8020453 L333.312424,35.0888187 L333.312424,35.0888187 L333.547363,34.3663936 L333.547363,34.3663936 L333.912168,33.2674759 L333.912168,33.2674759 L334.291336,32.1529195 L334.291336,32.1529195 L334.551812,31.4026925 L334.551812,31.4026925 L334.818246,30.647763 L334.818246,30.647763 L335.09047,29.8890301 L335.09047,29.8890301 L335.509287,28.7457664 L335.509287,28.7457664 L335.795238,27.9814591 L335.795238,27.9814591 L336.086383,27.2164956 L336.086383,27.2164956 L336.382552,26.451775 L336.382552,26.451775 L336.683574,25.6881967 L336.683574,25.6881967 L336.989279,24.9266596 L336.989279,24.9266596 L337.299498,24.1680631 L337.299498,24.1680631 L337.61406,23.4133063 L337.61406,23.4133063 L337.932796,22.6632884 L337.932796,22.6632884 L338.255535,21.9189086 C338.309648,21.7953651 338.363922,21.672094 338.418352,21.549114 L337.243899,21.8230116 L337.243899,21.8230116 L336.084993,22.1007047 C335.893202,22.1472846 335.702108,22.1940087 335.511734,22.24087 L334.378331,22.523629 C334.190936,22.5710114 334.00431,22.6185171 333.818478,22.6661391 L332.713198,22.9532112 C332.530636,23.0012706 332.348916,23.0494324 332.168062,23.0976896 L331.093525,23.3883218 L331.093525,23.3883218 L330.040939,23.6809093 C329.693865,23.7787272 329.350644,23.8768151 329.011469,23.9751174 L328.006279,24.2706114 C325.690067,24.9613375 323.581652,25.6598331 321.747602,26.3469695 C319.663839,27.1255745 319.290934,22.9826746 322.71201,21.6740515 C322.89181,21.6060794 323.081145,21.5378295 323.279669,21.4693422 L323.688871,21.3320632 C323.759079,21.3091346 323.830284,21.2861826 323.902471,21.2632087 L324.347288,21.125115 L324.347288,21.125115 L324.815087,20.9865679 L324.815087,20.9865679 L325.305255,20.8476396 L325.305255,20.8476396 L325.817183,20.7084017 L325.817183,20.7084017 L326.624539,20.4991221 L326.624539,20.4991221 L327.477419,20.2895506 L327.477419,20.2895506 L328.070279,20.149794 L328.070279,20.149794 L328.994453,19.9402755 L328.994453,19.9402755 L329.958655,19.7311123 L329.958655,19.7311123 L330.960824,19.5225472 L330.960824,19.5225472 L331.649013,19.3839558 L331.649013,19.3839558 L332.709882,19.1769266 L332.709882,19.1769266 L333.803223,18.9711426 L333.803223,18.9711426 L334.926975,18.7668464 L334.926975,18.7668464 L336.079077,18.5642808 L336.079077,18.5642808 L337.655751,18.2973046 L337.655751,18.2973046 L338.460088,18.1653117 L338.460088,18.1653117 L339.684875,17.9693936 C339.822117,17.9477705 339.959732,17.9261974 340.097707,17.9046759 C341.248567,15.5366605 342.461149,13.3560513 343.674373,11.5489664 Z M243.470961,39.5863782 C247.318779,39.5863782 250.234962,40.6392912 252.21951,42.7451171 C254.204058,44.850943 255.196332,47.9435303 255.196332,52.0228789 C255.196332,57.402808 253.517109,61.0610024 250.158664,62.997462 L249.970356,63.1032718 L255.874386,69.9003486 L247.737739,69.9003486 L243.470961,64.5255312 L243.454423,64.5089933 L243.454423,64.4924554 L243.437885,64.4759175 L243.123876,64.4734546 C239.484326,64.4159888 236.681081,63.3528716 234.714143,61.2841028 C232.691007,59.1562263 231.679439,56.0581264 231.679439,51.9898031 C231.679439,47.9655808 232.685494,44.8922878 234.697605,42.7699239 C236.709716,40.6475601 239.634168,39.5863782 243.470961,39.5863782 Z M632.508331,39.619454 C635.002547,39.619454 637.391283,40.1368101 639.674538,41.1715223 L640,41.3228577 L637.998914,46.4661446 L637.552391,46.2621771 C636.808185,45.9314191 636.06398,45.6465997 635.319774,45.407719 C634.426728,45.121062 633.46753,44.9777336 632.44218,44.9777336 C630.887617,44.9777336 629.674838,45.6144427 628.803842,46.887861 C627.932846,48.1612793 627.497348,49.917053 627.497348,52.1551821 C627.497348,56.8078446 629.266903,59.1341758 632.806014,59.1341758 C633.875464,59.1341758 634.911839,58.9853347 635.915139,58.6876525 C636.751221,58.439584 637.591132,58.1494051 638.434872,57.8171158 L638.941574,57.612689 L638.941574,63.1363476 L638.636946,63.2669556 C636.695066,64.0729302 634.514379,64.4759175 632.094884,64.4759175 C628.445521,64.4759175 625.647859,63.4174919 623.7019,61.3006407 C621.75594,59.1837895 620.78296,56.124278 620.78296,52.1221063 C620.78296,49.6193708 621.254291,47.4198301 622.196951,45.5234843 C623.139611,43.6271384 624.495719,42.1690469 626.265274,41.1492098 C628.034829,40.1293726 630.115849,39.619454 632.508331,39.619454 Z M565.56331,39.5863782 C569.411128,39.5863782 572.327311,40.6392912 574.311859,42.7451171 C576.296407,44.850943 577.288681,47.9435303 577.288681,52.0228789 C577.288681,56.0912022 576.290894,59.1837895 574.295321,61.3006407 C572.299748,63.4174919 569.378052,64.4759175 565.530234,64.4759175 C561.737542,64.4759175 558.829628,63.4119792 556.806492,61.2841028 C554.783355,59.1562263 553.771787,56.0581264 553.771787,51.9898031 C553.771787,47.9655808 554.777843,44.8922878 556.789954,42.7699239 C558.802065,40.6475601 561.726517,39.5863782 565.56331,39.5863782 Z M443.910307,39.619454 C446.299282,39.619454 448.733463,40.1468559 451.212849,41.2016595 L451.567355,41.3559335 L449.566269,46.399993 L449.259976,46.261881 C447.12932,45.3175806 445.279946,44.8454304 443.711852,44.8454304 C442.862907,44.8454304 442.245492,44.9942715 441.859607,45.2919537 C441.473723,45.5896359 441.280781,45.9589823 441.280781,46.399993 C441.280781,46.8740794 441.526093,47.2985522 442.016718,47.6734112 L442.072501,47.714756 L442.072501,47.714756 L442.20337,47.8045332 L442.20337,47.8045332 L442.359974,47.9037606 L442.359974,47.9037606 L442.542313,48.0124382 L442.542313,48.0124382 L442.864074,48.1931738 L442.864074,48.1931738 L443.11075,48.325477 L443.11075,48.325477 L443.529018,48.541651 L443.529018,48.541651 L444.17678,48.8629587 L444.17678,48.8629587 L444.927483,49.2220674 L444.927483,49.2220674 L445.558064,49.5162058 L445.558064,49.5162058 L446.01062,49.7241108 C448.094396,50.6612585 449.541462,51.667314 450.351819,52.7422775 C451.162176,53.817241 451.567355,55.1705925 451.567355,56.8023319 C451.567355,58.3017682 451.186983,59.6330691 450.42624,60.7962347 C449.665496,61.9594004 448.568482,62.8634722 447.135197,63.5084503 C445.701913,64.1534284 444.02056,64.4759175 442.091138,64.4759175 C440.481449,64.4759175 439.130854,64.3629085 438.039353,64.1368905 C437.057001,63.9334743 436.038928,63.5938686 434.985133,63.1180732 L434.632545,62.9544307 L434.632545,57.1330899 L435.049668,57.3410387 C436.166895,57.8816851 437.323323,58.3112622 438.518952,58.6297699 C439.864034,58.988091 441.098864,59.1672516 442.223441,59.1672516 C443.193665,59.1672516 443.904794,58.9991163 444.35683,58.6628457 C444.808866,58.326575 445.034884,57.8938333 445.034884,57.3646205 C445.034884,57.0338625 444.943926,56.7444493 444.762009,56.4963808 C444.580092,56.2483123 444.287922,55.9974875 443.8855,55.7439064 L443.776059,55.6779664 L443.776059,55.6779664 L443.640898,55.6018656 L443.640898,55.6018656 L443.389932,55.4686628 L443.389932,55.4686628 L442.965292,55.2554959 L442.965292,55.2554959 L442.437772,55.0016854 L442.437772,55.0016854 L441.6337,54.6272674 L441.6337,54.6272674 L440.668879,54.1893438 L440.668879,54.1893438 C439.092266,53.4727014 437.909806,52.7781096 437.121499,52.1055684 C436.333193,51.4330271 435.748853,50.6612585 435.368482,49.7902624 C434.98811,48.9192664 434.797924,47.8884039 434.797924,46.6976751 C434.797924,44.4705713 435.608281,42.7340918 437.228996,41.4882367 C438.84971,40.2423816 441.076814,39.619454 443.910307,39.619454 Z M152.942498,39.5863782 C156.790316,39.5863782 159.706499,40.6392912 161.691047,42.7451171 C163.675595,44.850943 164.667869,47.9435303 164.667869,52.0228789 C164.667869,56.0912022 163.670082,59.1837895 161.674509,61.3006407 C159.678935,63.4174919 156.75724,64.4759175 152.909422,64.4759175 C149.11673,64.4759175 146.208816,63.4119792 144.18568,61.2841028 C142.162543,59.1562263 141.150975,56.0581264 141.150975,51.9898031 C141.150975,47.9655808 142.157031,44.8922878 144.169142,42.7699239 C146.181253,40.6475601 149.105705,39.5863782 152.942498,39.5863782 Z M265.995581,39.9667499 L265.995581,54.156268 L265.997756,54.3972113 C266.026756,55.9822496 266.345764,57.1422777 266.954779,57.8772954 C267.594244,58.6490641 268.536905,59.0349484 269.78276,59.0349484 C271.116817,59.0349484 272.084284,58.6518204 272.685161,57.8855644 C273.257425,57.1557967 273.557182,55.9835184 273.584433,54.3687294 L273.586477,54.1231922 L273.586477,39.9667499 L280.118947,39.9667499 L280.118947,54.5201018 L280.116323,54.8146589 C280.062085,57.836804 279.167157,60.1889837 277.431538,61.8711982 C275.639933,63.6076777 273.057264,64.4759175 269.683532,64.4759175 C266.386978,64.4759175 263.853923,63.6324846 262.084367,61.9456188 C260.370111,60.3114676 259.486197,57.9840704 259.432627,54.9634273 L259.430035,54.6689429 L259.430035,39.9667499 L265.995581,39.9667499 Z M461.870466,39.9667499 L461.870466,50.4683163 L461.925486,50.3624463 L462.052292,50.1317403 L462.052292,50.1317403 L462.201453,49.8757464 L462.201453,49.8757464 L462.372971,49.5944647 L462.372971,49.5944647 L462.566845,49.2878951 L462.566845,49.2878951 L462.783074,48.9560376 L462.783074,48.9560376 L463.149336,48.4108366 L463.149336,48.4108366 L463.421456,48.0157595 L463.421456,48.0157595 L463.871552,47.375729 L468.948687,39.9667499 L476.09306,39.9667499 L468.469088,50.7990743 L475.960757,64.1451595 L468.584854,64.1451595 L463.805401,54.9004735 L461.870466,56.0581264 L461.870466,64.1451595 L455.30492,64.1451595 L455.30492,39.9667499 L461.870466,39.9667499 Z M6.53247043,39.9667499 L6.53247043,58.8695694 L15.843308,58.8695694 L15.843308,64.1451595 L0,64.1451595 L0,39.9667499 L6.53247043,39.9667499 Z M82.4910443,39.9667499 L82.4910443,64.1451595 L75.9254981,64.1451595 L75.9254981,39.9667499 L82.4910443,39.9667499 Z M96.1513496,39.9667499 L96.4882134,39.9684902 C99.6041032,40.0009761 101.931155,40.488264 103.46937,41.4303541 C105.062521,42.4060901 105.859097,43.9248206 105.859097,45.9865455 C105.859097,47.3426532 105.511801,48.5003062 104.817209,49.4595044 C104.163476,50.3622792 103.314416,50.9622978 102.270029,51.2595604 L102.071918,51.3117492 L102.071918,51.4771282 L102.305235,51.5419971 C103.684523,51.944404 104.69274,52.5842971 105.329884,53.4616762 C106.002425,54.3877986 106.338696,55.5895526 106.338696,57.0669383 C106.338696,59.2609664 105.514557,60.9891769 103.86628,62.2515699 C102.27687,63.4688775 100.131299,64.0992689 97.4295668,64.1427442 L97.1270857,64.1451595 L87.7170207,64.1451595 L87.7170207,39.9667499 L96.1513496,39.9667499 Z M117.071793,39.9667499 L117.071793,58.8695694 L126.38263,58.8695694 L126.38263,64.1451595 L110.539322,64.1451595 L110.539322,39.9667499 L117.071793,39.9667499 Z M136.818045,39.9667499 L136.818045,64.1451595 L130.252499,64.1451595 L130.252499,39.9667499 L136.818045,39.9667499 Z M616.466965,39.9667499 L616.466965,64.1451595 L609.901419,64.1451595 L609.901419,39.9667499 L616.466965,39.9667499 Z M590.188243,39.9667499 L598.986405,56.7692561 L599.085633,56.7692561 L599.015884,55.608562 L599.015884,55.608562 L598.957643,54.5056522 L598.957643,54.5056522 L598.912344,53.4831712 L598.912344,53.4831712 L598.889335,52.8462 L598.889335,52.8462 L598.865607,51.9577672 L598.865607,51.9577672 L598.856978,51.4101613 C598.85602,51.3218726 598.855301,51.2350732 598.854821,51.1497633 L598.854102,39.9667499 L604.675443,39.9667499 L604.675443,64.1451595 L596.108811,64.1451595 L587.277572,47.1111226 L587.128731,47.1111226 L587.205356,48.1271249 L587.205356,48.1271249 L587.271288,49.0784137 L587.271288,49.0784137 L587.309304,49.6766542 L587.309304,49.6766542 L587.342567,50.2461332 L587.342567,50.2461332 L587.383552,51.0464238 L587.383552,51.0464238 L587.404936,51.5439988 L587.404936,51.5439988 L587.421568,52.0128123 L587.421568,52.0128123 L587.433447,52.4528643 L587.433447,52.4528643 L587.440575,52.8641547 L587.440575,52.8641547 L587.442951,53.2466835 L587.442951,64.1451595 L581.654686,64.1451595 L581.654686,39.9667499 L590.188243,39.9667499 Z M184.5795,39.9667499 L184.5795,45.3084916 L178.692008,45.3084916 L178.692008,64.1451595 L172.159537,64.1451595 L172.159537,45.3084916 L166.255507,45.3084916 L166.255507,39.9667499 L184.5795,39.9667499 Z M194.601467,39.9667499 L194.601467,48.9302916 L202.192363,48.9302916 L202.192363,39.9667499 L208.757909,39.9667499 L208.757909,64.1451595 L202.192363,64.1451595 L202.192363,54.2885712 L194.601467,54.2885712 L194.601467,64.1451595 L188.035921,64.1451595 L188.035921,39.9667499 L194.601467,39.9667499 Z M33.7042398,39.8675225 L41.6920455,64.1451595 L34.5476727,64.1451595 L33.3569439,59.6137749 L25.5014415,59.6137749 L24.2776369,64.1451595 L17.1001884,64.1451595 L24.9887666,39.8675225 L33.7042398,39.8675225 Z M228.338783,39.9667499 L228.338783,45.2092642 L220.516356,45.2092642 L220.516356,49.0129811 L227.759956,49.0129811 L227.759956,54.2554954 L220.516356,54.2554954 L220.516356,58.8199557 L228.338783,58.8199557 L228.338783,64.1451595 L213.983886,64.1451595 L213.983886,39.9667499 L228.338783,39.9667499 Z M61.5375252,39.9667499 L61.8743891,39.9684902 C64.9902789,40.0009761 67.3173311,40.488264 68.8555459,41.4303541 C70.4486969,42.4060901 71.2452724,43.9248206 71.2452724,45.9865455 C71.2452724,47.3426532 70.8979765,48.5003062 70.2033847,49.4595044 C69.5496513,50.3622792 68.7005913,50.9622978 67.6562048,51.2595604 L67.4580934,51.3117492 L67.4580934,51.4771282 L67.6914106,51.5419971 C69.0706989,51.944404 70.0789153,52.5842971 70.7160596,53.4616762 C71.3886009,54.3877986 71.7248715,55.5895526 71.7248715,57.0669383 C71.7248715,59.2609664 70.9007329,60.9891769 69.2524555,62.2515699 C67.6630452,63.4688775 65.5174742,64.0992689 62.8157425,64.1427442 L62.5132613,64.1451595 L53.1031963,64.1451595 L53.1031963,39.9667499 L61.5375252,39.9667499 Z M551.886467,39.9667499 L551.886467,45.3084916 L545.998974,45.3084916 L545.998974,64.1451595 L539.466504,64.1451595 L539.466504,45.3084916 L533.562474,45.3084916 L533.562474,39.9667499 L551.886467,39.9667499 Z M531.098327,39.9667499 L531.098327,45.2092642 L523.2759,45.2092642 L523.2759,49.0129811 L530.5195,49.0129811 L530.5195,54.2554954 L523.2759,54.2554954 L523.2759,58.8199557 L531.098327,58.8199557 L531.098327,64.1451595 L516.74343,64.1451595 L516.74343,39.9667499 L531.098327,39.9667499 Z M299.550979,39.9667499 L299.550979,45.2092642 L291.728553,45.2092642 L291.728553,49.0129811 L298.972153,49.0129811 L298.972153,54.2554954 L291.728553,54.2554954 L291.728553,58.8199557 L299.550979,58.8199557 L299.550979,64.1451595 L285.196082,64.1451595 L285.196082,39.9667499 L299.550979,39.9667499 Z M503.562723,39.9667499 L503.562723,58.8695694 L512.873561,58.8695694 L512.873561,64.1451595 L497.030253,64.1451595 L497.030253,39.9667499 L503.562723,39.9667499 Z M492.796551,39.9667499 L492.796551,45.2092642 L484.974124,45.2092642 L484.974124,49.0129811 L492.217724,49.0129811 L492.217724,54.2554954 L484.974124,54.2554954 L484.974124,58.8199557 L492.796551,58.8199557 L492.796551,64.1451595 L478.441654,64.1451595 L478.441654,39.9667499 L492.796551,39.9667499 Z M317.735666,43.8240436 C314.470182,33.9797458 321.872332,25.4743394 330.331473,29.8986706 C333.498828,31.5617027 331.467983,37.3356994 327.273832,36.9850508 L327.128354,36.9705164 L326.412763,36.4720546 C329.989429,32.3909794 325.697816,29.4311212 323.675774,32.4843605 C322.694739,33.966688 322.911759,35.6325116 323.565065,37.5334314 L323.701317,37.9167653 L323.701317,37.9167653 L323.847849,38.3064601 C323.873053,38.3719444 323.898628,38.4376976 323.924547,38.5037215 L324.166337,39.1052996 L324.166337,39.1052996 L324.957357,41.0008603 L324.957357,41.0008603 L325.137822,41.4411863 L325.137822,41.4411863 L325.405789,42.1150928 L325.405789,42.1150928 L325.580637,42.5734426 L325.580637,42.5734426 L325.750869,43.0391624 L325.750869,43.0391624 L325.915129,43.512344 L325.915129,43.512344 L326.12762,44.1562856 C326.161774,44.2621387 326.195298,44.3672638 326.228191,44.4716716 L326.41799,45.0895972 C328.3011,51.3876671 327.762156,55.0113373 324.826634,58.5280217 C316.833624,68.0612639 301.873733,64.4161818 307.036528,54.5409716 C308.809753,51.1451203 311.888785,48.7152802 317.144806,49.307123 C317.518032,49.7741894 317.313698,50.0311484 317.030885,50.2092265 L316.934393,50.2658444 L316.934393,50.2658444 L316.787739,50.3421782 C316.771744,50.3501993 316.755935,50.3580895 316.740398,50.3658713 C315.808358,50.8293554 314.962616,51.5984185 314.24876,52.5152365 L314.04843,52.7810687 C313.982875,52.8709287 313.918556,52.9619925 313.855513,53.0541239 L313.670246,53.3335842 C313.640019,53.3806493 313.61012,53.4279471 313.580555,53.4754607 L313.407206,53.7629948 C313.209727,54.1011538 313.029073,54.4482145 312.866933,54.7983316 L312.732528,55.0990442 L312.732528,55.0990442 L312.607428,55.4004358 C312.587367,55.4506789 312.567703,55.5009161 312.548441,55.5511306 L312.43774,55.8520069 C312.420108,55.9020619 312.402888,55.9520599 312.386085,56.001984 L312.290315,56.3005046 C311.54972,58.7289481 311.834476,60.8979825 313.723731,60.802656 C315.496312,60.7401873 318.140075,58.9646587 319.508248,55.9423318 C320.441265,53.8716584 320.147582,51.4883406 319.46264,49.0270157 L319.320682,48.5337802 C319.271789,48.369068 319.221405,48.2040786 319.169776,48.0388816 L319.011407,47.542737 L319.011407,47.542737 L318.84706,47.0457637 L318.84706,47.0457637 L318.67822,46.5483787 L318.67822,46.5483787 L318.073344,44.8103119 L317.902667,44.3162365 C317.846305,44.1518352 317.790556,43.9877478 317.735666,43.8240436 Z M96.415956,54.0239648 L94.2494911,54.0239648 L94.2494911,59.1011 L96.5482592,59.1011 C98.5879335,59.1011 99.6077706,58.2411292 99.6077706,56.5211876 C99.6077706,55.7163432 99.3348953,55.0989283 98.7891446,54.6689429 C98.2797773,54.2676232 97.5567158,54.053586 96.6199601,54.0268313 L96.415956,54.0239648 Z M61.8021316,54.0239648 L59.6356668,54.0239648 L59.6356668,59.1011 L61.9344348,59.1011 C63.9741091,59.1011 64.9939463,58.2411292 64.9939463,56.5211876 C64.9939463,55.7163432 64.721071,55.0989283 64.1753203,54.6689429 C63.6659529,54.2676232 62.9428915,54.053586 62.0061358,54.0268313 L61.8021316,54.0239648 Z M243.470961,44.9446578 C240.196457,44.9446578 238.559205,47.3040648 238.559205,52.0228789 C238.559205,56.6975919 240.185432,59.0349484 243.437885,59.0349484 C245.091675,59.0349484 246.318236,58.4671472 247.117568,57.3315447 C247.9169,56.1959423 248.316566,54.426387 248.316566,52.0228789 C248.316566,49.6083455 247.911387,47.8250087 247.10103,46.6728683 C246.290673,45.5207279 245.08065,44.9446578 243.470961,44.9446578 Z M565.56331,44.9446578 C562.288806,44.9446578 560.651554,47.3040648 560.651554,52.0228789 C560.651554,56.6975919 562.27778,59.0349484 565.530234,59.0349484 C567.184024,59.0349484 568.410585,58.4671472 569.209917,57.3315447 C570.009249,56.1959423 570.408914,54.426387 570.408914,52.0228789 C570.408914,49.6083455 570.003736,47.8250087 569.193379,46.6728683 C568.383022,45.5207279 567.172999,44.9446578 565.56331,44.9446578 Z M152.942498,44.9446578 C149.667993,44.9446578 148.030741,47.3040648 148.030741,52.0228789 C148.030741,56.6975919 149.656968,59.0349484 152.909422,59.0349484 C154.563212,59.0349484 155.789773,58.4671472 156.589104,57.3315447 C157.388436,56.1959423 157.788102,54.426387 157.788102,52.0228789 C157.788102,49.6083455 157.382924,47.8250087 156.572567,46.6728683 C155.762209,45.5207279 154.552186,44.9446578 152.942498,44.9446578 Z M367.799086,52.2801871 L367.964586,52.2354249 C370.139261,51.6571577 372.75422,51.1076267 375.671375,50.6000949 L376.779203,50.4117651 L376.779203,50.4117651 L377.913744,50.2275282 C378.104971,50.1971717 378.297243,50.1669923 378.490526,50.1369931 L379.662102,49.9591869 C379.859299,49.9299216 380.05744,49.9008431 380.256491,49.8719546 L381.461461,49.7009288 L381.461461,49.7009288 L382.68667,49.5346175 C382.892468,49.5073005 383.099043,49.4801864 383.306359,49.4532785 L384.558893,49.2943305 C384.769044,49.2682601 384.979869,49.2424024 385.191335,49.2167605 L386.467553,49.0655255 L386.467553,49.0655255 L387.757539,48.9196268 C387.973594,48.8957637 388.190155,48.8721294 388.407188,48.8487272 L389.71479,48.7111243 L389.71479,48.7111243 L391.032112,48.5792463 C391.252386,48.5577523 391.472998,48.5365034 391.693914,48.5155027 L393.022784,48.3925034 L393.022784,48.3925034 L394.35733,48.2756175 C394.802944,48.2376917 395.249235,48.2008107 395.695933,48.1650004 L397.036975,48.0608076 C397.260595,48.0439861 397.48425,48.0274388 397.707905,48.0111689 L399.049572,47.9169039 L399.049572,47.9169039 L400.389632,47.8294518 L400.389632,47.8294518 L401.726468,47.7489679 C402.171363,47.7233186 402.61545,47.6988566 403.058461,47.6756078 L404.383992,47.6095267 C404.82458,47.5887302 405.26382,47.5691727 405.701445,47.5508802 L407.009199,47.4998237 C410.699238,47.3660628 414.253015,47.3255694 417.504898,47.3942521 L418.639817,47.4230523 C421.6314,47.5120795 424.3383,47.6994744 426.622429,47.9984999 C427.743358,48.1474951 427.682025,49.0129349 427.062077,50.0305734 L426.939443,50.2230265 C426.917964,50.2553533 426.895977,50.2877944 426.873502,50.3203324 L426.732942,50.5165864 L426.732942,50.5165864 L426.581573,50.7143413 C426.555495,50.7473796 426.529005,50.780446 426.502121,50.8135233 L426.336252,51.0119796 C426.307872,51.0450315 426.279136,51.0780598 426.250064,51.1110474 L426.071751,51.3083455 L426.071751,51.3083455 L425.886283,51.5038384 L425.886283,51.5038384 L425.694574,51.6966994 L425.694574,51.6966994 L425.497538,51.886102 C425.464305,51.917335 425.430889,51.9483895 425.397308,51.9792482 L425.193993,52.1619135 L425.193993,52.1619135 L424.987636,52.3390542 L424.987636,52.3390542 L424.779148,52.5098436 L424.779148,52.5098436 L424.569444,52.6734553 C424.499441,52.7267044 424.429388,52.7786194 424.359437,52.8290627 L424.150041,52.9758392 C424.115243,52.9995202 424.080509,53.0227987 424.045857,53.0456576 L423.83909,53.1776382 C423.804845,53.1987498 423.77072,53.2194074 423.736735,53.2395937 L423.534652,53.3549186 C423.501301,53.373151 423.468129,53.3908776 423.435153,53.4080813 L423.23981,53.5048909 C422.790229,53.7154949 422.386669,53.8168555 422.081355,53.7617226 C416.709501,52.7343504 410.032524,52.2759786 403.120054,52.2041578 L401.89798,52.1954591 C401.285938,52.1930789 400.672552,52.1936246 400.058558,52.1969709 L398.829976,52.2073606 L398.829976,52.2073606 L397.601076,52.2249956 L397.601076,52.2249956 L396.373166,52.2496533 C396.168669,52.2543357 395.964268,52.2593015 395.75999,52.264546 L394.536013,52.2993198 C394.332335,52.3056604 394.128834,52.3122704 393.925538,52.3191452 L392.708433,52.3635338 C392.506064,52.371449 392.303953,52.3796197 392.102129,52.3880412 L390.894835,52.4415433 L390.894835,52.4415433 L389.695715,52.5008424 L389.695715,52.5008424 L388.506075,52.5657159 L388.506075,52.5657159 L387.327221,52.6359409 L387.327221,52.6359409 L386.16046,52.7112945 L386.16046,52.7112945 L385.007098,52.791554 C384.81606,52.805327 384.625635,52.8192951 384.43585,52.8334538 L383.305035,52.9206542 L383.305035,52.9206542 L382.190885,53.0122035 L382.190885,53.0122035 L381.094706,53.1078788 L381.094706,53.1078788 L380.017804,53.2074573 C379.662194,53.2412759 379.310016,53.2757078 378.961485,53.3107161 L377.927056,53.4174325 L377.927056,53.4174325 L376.915823,53.5273836 C376.74929,53.5459659 376.583778,53.5646738 376.419314,53.5835025 L375.445324,53.6978879 C375.285161,53.7171815 375.126101,53.7365866 374.968171,53.7560987 L374.034364,53.8744171 L374.034364,53.8744171 L373.128978,53.995079 L373.128978,53.995079 L372.25332,54.1178615 L372.25332,54.1178615 L371.408695,54.2425418 C371.270583,54.2634677 371.133818,54.2844633 370.998428,54.3055241 L370.202804,54.4326334 C370.073022,54.4539362 369.944669,54.4752948 369.817772,54.4967047 L369.074086,54.6257417 C368.711199,54.6905304 368.361909,54.7556965 368.026951,54.8211148 L368.014922,54.822922 L368.014922,54.822922 L367.656264,54.9067884 L367.656264,54.9067884 L367.167023,55.0237295 L367.167023,55.0237295 L367.094048,55.0387893 L367.094048,55.0387893 C365.269246,55.398861 364.181553,53.7408519 366.802208,52.6239151 L367.05885,52.5208656 C367.281922,52.4364421 367.528196,52.3558091 367.799086,52.2801871 L367.799086,52.2801871 Z M29.431682,44.0836569 L29.387848,43.8531564 L29.387848,43.8531564 L29.2953391,44.3430917 L29.2953391,44.3430917 L29.1288296,45.1473762 L29.1288296,45.1473762 L28.9549232,45.9442963 L28.9549232,45.9442963 L28.7455022,46.8721529 L28.7455022,46.8721529 L28.4939931,47.9189475 L28.4939931,47.9189475 L28.0958246,49.5049836 L28.0958246,49.5049836 L27.3554889,52.3645096 L27.3554889,52.3645096 L26.8575493,54.2554954 L32.0008362,54.2554954 L30.9589485,50.2863994 L30.843281,49.8609155 L30.843281,49.8609155 L30.5896347,48.8995644 L30.5896347,48.8995644 L30.3062396,47.7910358 L30.3062396,47.7910358 L30.0141136,46.6200786 L30.0141136,46.6200786 L29.7984915,45.73058 L29.7984915,45.73058 L29.6626117,45.1499795 L29.6626117,45.1499795 L29.515888,44.4912103 L29.515888,44.4912103 L29.431682,44.0836569 L29.431682,44.0836569 Z M61.4713736,44.911582 L59.6356668,44.911582 L59.6356668,49.2445117 L61.6036768,49.2445117 C62.5408245,49.2445117 63.2657358,49.0515696 63.7784107,48.6656852 C64.2910856,48.2798009 64.547423,47.706487 64.547423,46.9457436 C64.547423,45.63073 63.5832741,44.9532988 61.6549762,44.9134499 L61.4713736,44.911582 Z M96.085198,44.911582 L94.2494911,44.911582 L94.2494911,49.2445117 L96.2175012,49.2445117 C97.1546488,49.2445117 97.8795601,49.0515696 98.392235,48.6656852 C98.9049099,48.2798009 99.1612473,47.706487 99.1612473,46.9457436 C99.1612473,45.63073 98.1970984,44.9532988 96.2688005,44.9134499 L96.085198,44.911582 Z M387.340821,6.09744332 C391.477487,-0.133328743 397.915229,-1.47286424 399.844044,1.54881871 C400.71484,2.90715922 400.356543,5.10786147 398.998019,7.94356537 L398.786768,8.37365755 C398.750318,8.44612469 398.713251,8.51898223 398.675569,8.59222692 L398.442134,9.03631503 C398.402009,9.11109539 398.361277,9.18625643 398.319941,9.2617949 L398.064709,9.71952903 C398.020972,9.79656428 397.976639,9.87397049 397.931713,9.95174442 L397.655071,10.4227746 C397.607787,10.5020065 397.559918,10.5815995 397.511466,10.6615506 L397.213799,11.145527 L397.213799,11.145527 L396.902329,11.6379398 C396.849277,11.720703 396.795657,11.8038112 396.741473,11.8872612 L396.409622,12.392037 L396.409622,12.392037 L396.064399,12.9048603 L396.064399,12.9048603 L395.705975,13.4255758 L395.705975,13.4255758 L395.334522,13.9540277 L395.334522,13.9540277 L394.95021,14.4900607 L394.95021,14.4900607 L394.553213,15.0335192 L394.553213,15.0335192 L394.143701,15.5842476 L394.143701,15.5842476 L393.721846,16.1420906 L393.721846,16.1420906 L393.28782,16.7068925 L393.28782,16.7068925 L392.841795,17.2784977 L392.841795,17.2784977 L392.383941,17.856751 L392.383941,17.856751 L391.914432,18.4414965 L391.914432,18.4414965 L391.433437,19.032579 L391.433437,19.032579 L390.94113,19.6298428 L390.94113,19.6298428 L390.437682,20.2331324 C390.352855,20.3341742 390.267571,20.4354605 390.181833,20.5369883 L389.398047,21.457167 L389.398047,21.457167 L388.862205,22.077601 L388.862205,22.077601 L388.315908,22.7034387 L388.315908,22.7034387 L387.477235,23.6519871 L387.477235,23.6519871 L386.905552,24.2906537 L386.905552,24.2906537 L386.736546,24.4740289 L386.736546,24.4740289 L386.468816,24.7511126 L386.468816,24.7511126 L385.98768,25.2279667 L385.98768,25.2279667 L385.359644,25.847332 L385.359644,25.847332 L385.027739,26.1854268 L385.027739,26.1854268 L384.80067,26.4240024 L384.80067,26.4240024 L384.569384,26.6744736 L384.569384,26.6744736 L384.334242,26.9379994 L384.334242,26.9379994 L384.095603,27.2157387 C383.97547,27.358355 383.854161,27.506736 383.731879,27.6615337 L383.486079,27.9798778 C382.662824,29.0708314 381.802352,30.4662888 380.964801,32.359423 L380.715682,33.0629773 L380.715682,33.0629773 L380.481874,33.7468264 L380.481874,33.7468264 L380.264098,34.4087742 L380.264098,34.4087742 L380.06308,35.0466246 C379.838614,35.7758725 379.649836,36.4514376 379.501915,37.0576264 L379.382508,37.5655235 L379.382508,37.5655235 L379.275732,38.0640382 L379.275732,38.0640382 L379.18341,38.5515084 L379.18341,38.5515084 L379.124189,38.9079308 L379.124189,38.9079308 L379.073975,39.2549787 C379.06891,39.2929686 379.064019,39.3307598 379.059304,39.3683439 L379.021684,39.7007844 L379.021684,39.7007844 L378.993948,40.0206884 L378.993948,40.0206884 L378.976473,40.3267006 L378.976473,40.3267006 L378.970708,40.522322 C378.970147,40.5543385 378.969788,40.586056 378.969633,40.617466 L378.971168,40.8021699 L378.971168,40.8021699 L378.977708,40.9790935 L378.977708,40.9790935 L378.989365,41.1478354 C378.991741,41.175255 378.994334,41.2023169 378.997148,41.2290128 L379.016689,41.3847292 L379.016689,41.3847292 L379.041626,41.5312601 C379.046238,41.5548941 379.051079,41.5781287 379.056152,41.6009555 L379.089391,41.7329551 C379.323761,42.5582725 379.91771,42.7378377 381.008883,41.7754368 L381.180697,41.6182986 L381.180697,41.6182986 L381.360469,41.4427397 L381.360469,41.4427397 L381.548308,41.2483585 L381.548308,41.2483585 L381.744328,41.0347536 L381.744328,41.0347536 L381.948639,40.8015233 C381.983388,40.7609939 382.018487,40.71963 382.053938,40.6774232 C382.123042,40.5954912 382.199997,40.498133 382.284188,40.3865056 L382.462038,40.144568 L382.462038,40.144568 L382.658098,39.8666359 L382.658098,39.8666359 L382.871276,39.5547663 L382.871276,39.5547663 L383.100484,39.2110158 L383.100484,39.2110158 L383.344631,38.8374413 L383.344631,38.8374413 L383.736479,38.2256586 L383.736479,38.2256586 L384.155809,37.5583412 L384.155809,37.5583412 L384.598943,36.8424308 L384.598943,36.8424308 L385.380406,35.5601162 L385.380406,35.5601162 L386.367978,33.9138662 L386.367978,33.9138662 L387.720956,31.6276731 L387.720956,31.6276731 L391.924784,24.4436034 L391.924784,24.4436034 L392.523161,23.4437704 L392.523161,23.4437704 L392.703478,23.1528158 L392.703478,23.1528158 L392.752433,23.0760557 C394.983979,19.6124501 398.358652,18.1402698 400.726911,17.9107403 L400.9906,17.8900242 C402.156818,17.8203281 403.040796,18.0657955 403.358345,18.5274311 C403.120426,18.620941 402.698454,19.1483299 402.168325,19.9764891 L401.950685,20.3234784 C401.91351,20.3838782 401.8759,20.445536 401.837876,20.5084122 L401.604955,20.8999751 L401.604955,20.8999751 L401.363195,21.3188874 L401.363195,21.3188874 L401.113676,21.763256 L401.113676,21.763256 L400.857478,22.2311878 L400.857478,22.2311878 L400.59568,22.7207897 L400.59568,22.7207897 L400.329361,23.2301686 L400.329361,23.2301686 L400.059601,23.7574313 L400.059601,23.7574313 L399.787478,24.3006849 L399.787478,24.3006849 L399.514074,24.8580361 L399.514074,24.8580361 L399.240466,25.4275918 L399.240466,25.4275918 L398.967734,26.0074591 L398.967734,26.0074591 L398.696959,26.5957447 L398.696959,26.5957447 L398.429218,27.1905555 L398.429218,27.1905555 L398.165591,27.7899986 L398.165591,27.7899986 L397.907159,28.3921806 L397.907159,28.3921806 L397.654999,28.9952086 L397.654999,28.9952086 L397.410193,29.5971895 L397.410193,29.5971895 L397.173818,30.1962301 C397.135185,30.29572 397.096948,30.3950085 397.05913,30.4940562 L396.837428,31.0851368 L396.837428,31.0851368 L396.626855,31.6685444 L396.626855,31.6685444 L396.428493,32.2423859 C395.18116,35.937164 394.776037,38.9057137 396.547056,38.8085136 C397.117242,38.7779734 397.771064,38.3304868 398.498519,37.5429432 L398.698734,37.3197852 L398.698734,37.3197852 L398.902555,37.0801114 C398.936823,37.0388088 398.971239,36.9968324 399.005803,36.9541895 L399.214949,36.6903921 L399.214949,36.6903921 L399.427589,36.4109454 L399.427589,36.4109454 L399.643676,36.1161962 L399.643676,36.1161962 L399.863167,35.806491 L399.863167,35.806491 L400.086016,35.4821764 L400.086016,35.4821764 L400.312179,35.1435991 L400.312179,35.1435991 L400.541609,34.7911056 L400.541609,34.7911056 L400.774262,34.4250425 L400.774262,34.4250425 L401.010093,34.0457565 L401.010093,34.0457565 L401.249057,33.6535942 L401.249057,33.6535942 L401.491109,33.2489022 L401.491109,33.2489022 L401.984295,32.4033153 L401.984295,32.4033153 L402.361954,31.7388126 L402.361954,31.7388126 L402.87557,30.8146161 L402.87557,30.8146161 L403.400365,29.8493126 L403.400365,29.8493126 L403.935977,28.8456749 L403.935977,28.8456749 L404.482047,27.8064759 L404.482047,27.8064759 L405.178791,26.4616932 L405.178791,26.4616932 L406.034715,24.7879532 L406.034715,24.7879532 L407.059099,22.7643561 L407.059099,22.7643561 C409.142862,18.6523685 413.714797,16.7828149 416.669742,18.4965187 L416.634266,18.5406691 L416.634266,18.5406691 L416.546826,18.6632734 C416.53047,18.6874382 416.513239,18.7134415 416.495157,18.7412428 L416.376652,18.9293049 L416.376652,18.9293049 L416.163184,19.2880724 L416.163184,19.2880724 L415.910388,19.7330351 L415.910388,19.7330351 L415.721967,20.0743331 L415.721967,20.0743331 L415.412435,20.6484194 L415.412435,20.6484194 L415.189861,21.0697434 L415.189861,21.0697434 L414.834608,21.7547842 L414.834608,21.7547842 L414.585225,22.2440216 L414.585225,22.2440216 L414.195266,23.021848 L414.195266,23.021848 L413.78977,23.8466248 L413.78977,23.8466248 L413.512766,24.4193294 L413.512766,24.4193294 L413.231794,25.0080558 L413.231794,25.0080558 L412.948028,25.6108659 L412.948028,25.6108659 L412.519712,26.5372486 L412.519712,26.5372486 L412.091721,27.4844184 L412.091721,27.4844184 L411.808531,28.1241832 L411.808531,28.1241832 L411.528422,28.7683417 L411.528422,28.7683417 L411.25257,29.4149558 L411.25257,29.4149558 L410.982148,30.0620875 L410.982148,30.0620875 L410.718332,30.7077987 C410.674979,30.8151912 410.63195,30.9224438 410.589269,31.0295161 L410.337565,31.6694629 C410.296377,31.7756524 410.255586,31.8815809 410.215218,31.9872079 L409.978269,32.6170298 L409.978269,32.6170298 L409.752625,33.2376792 L409.752625,33.2376792 L409.539461,33.847218 L409.539461,33.847218 L409.339953,34.4437084 C408.186217,37.9796286 407.833299,40.7062748 409.423183,40.739892 C408.751765,43.3996904 404.484422,43.9291171 402.797792,43.2116681 L402.639352,43.1391174 L402.639352,43.1391174 L402.50665,43.0730774 L402.50665,43.0730774 L402.373415,43.0002151 L402.373415,43.0002151 L402.240867,42.9200402 C402.2189,42.9060411 402.197014,42.8917169 402.175232,42.8770574 L402.046007,42.7849948 C401.259407,42.1914547 400.686334,41.1109088 401.616625,39.0261881 L401.721858,38.7951741 L401.721858,38.7951741 L401.93303,38.3488671 L401.93303,38.3488671 L402.143074,37.9237957 L402.143074,37.9237957 L402.349504,37.5202884 C402.38347,37.4548525 402.417182,37.3903287 402.450588,37.326724 L403.0894,36.1284754 L403.0894,36.1284754 L403.240494,35.8377197 L403.240494,35.8377197 L403.373067,35.5705005 C403.475137,35.357716 403.555326,35.169791 403.607162,35.0075817 C403.85598,34.5400323 403.607162,34.0106581 403.171893,34.6649697 L402.819764,35.2170822 L402.819764,35.2170822 L402.49982,35.7028882 L402.49982,35.7028882 L402.217786,36.1187363 L402.217786,36.1187363 L402.0106,36.4170887 L402.0106,36.4170887 L401.788626,36.7302212 L401.788626,36.7302212 L401.552332,37.0563204 L401.552332,37.0563204 L401.302183,37.3935726 C401.259362,37.4506099 401.215984,37.5080364 401.172058,37.5658143 L400.901998,37.9163953 L400.901998,37.9163953 L400.619248,38.2735951 C400.571091,38.3335793 400.522425,38.3937636 400.473259,38.4541104 L400.172346,38.8178379 L400.172346,38.8178379 L399.859907,39.1836502 C397.792597,41.5642759 395.024321,43.962082 392.130712,44.1357432 L391.89722,44.1479403 L391.89722,44.1479403 L391.663741,44.1542151 C391.624867,44.1547333 391.586023,44.1549792 391.547222,44.15494 L391.315049,44.1511819 C387.727988,44.0367379 384.763294,41.2357004 393.903293,25.4743394 C394.182971,25.1317274 393.685337,24.7272908 393.405659,25.2257525 L393.134375,25.7006171 L393.134375,25.7006171 L392.573729,26.6987507 L392.573729,26.6987507 L392.138561,27.4851357 L392.138561,27.4851357 L389.483816,32.3558048 L389.483816,32.3558048 L388.658421,33.8559725 L388.658421,33.8559725 L387.989128,35.0556085 L387.989128,35.0556085 L387.483432,35.9489529 L387.483432,35.9489529 L387.145067,36.5393007 L387.145067,36.5393007 L386.636388,37.4140988 L386.636388,37.4140988 L386.296934,37.9884562 L386.296934,37.9884562 L385.957548,38.5543867 L385.957548,38.5543867 L385.618518,39.11073 L385.618518,39.11073 L385.280131,39.6563256 L385.280131,39.6563256 L384.942677,40.1900133 L384.942677,40.1900133 L384.606442,40.7106325 L384.606442,40.7106325 L384.271715,41.2170228 L384.271715,41.2170228 L383.938784,41.708024 L383.938784,41.708024 L383.607936,42.1824756 C383.44308,42.4153705 383.279114,42.6416243 383.116199,42.860584 L382.791819,43.2885848 C381.66173,44.7511953 380.588438,45.835079 379.627489,46.3163524 L379.414677,46.418265 L379.414677,46.418265 L379.198207,46.5145091 L379.198207,46.5145091 L378.97845,46.6048754 C378.941571,46.619435 378.90457,46.633741 378.867455,46.647789 L378.643464,46.7289463 C378.605926,46.741945 378.568289,46.7546769 378.530561,46.7671377 L378.303173,46.838615 C378.227056,46.8613332 378.150639,46.8829323 378.073985,46.9033773 L377.843367,46.9612154 C377.689229,46.9974195 377.534386,47.0288679 377.379334,47.0552814 L377.146661,47.0910908 C377.069092,47.1017453 376.991533,47.1111063 376.914046,47.1191387 L376.681861,47.1392158 C373.822426,47.3368191 371.145871,45.6679915 371.79007,40.3657236 C371.94816,39.1099622 372.294448,37.5929747 372.79913,35.8833508 L372.983781,35.272067 L372.983781,35.272067 L373.181294,34.6454559 C373.249244,34.4341054 373.319288,34.2203121 373.391379,34.0041875 L373.613744,33.348932 L373.613744,33.348932 L373.848098,32.6803595 L373.848098,32.6803595 L374.09415,31.9991401 C374.136117,31.8845869 374.17856,31.7695346 374.221471,31.6539972 L374.484523,30.955064 L374.484523,30.955064 L374.758545,30.2451591 L374.758545,30.2451591 L375.043245,29.5249528 L375.043245,29.5249528 L375.338333,28.7951152 L375.338333,28.7951152 L375.643517,28.0563163 L375.643517,28.0563163 L375.958505,27.3092263 C376.011804,27.1840576 376.065499,27.0585714 376.119585,26.9327816 L376.448735,26.1745114 L376.448735,26.1745114 L376.786961,25.4096255 L376.786961,25.4096255 L377.133973,24.6387938 C377.192525,24.5098636 377.25143,24.3807136 377.310683,24.2513578 L377.670328,23.4728641 L377.670328,23.4728641 L378.03803,22.6901 L378.03803,22.6901 L378.413499,21.9037357 L378.413499,21.9037357 L378.796442,21.1144412 L378.796442,21.1144412 L379.18657,20.3228867 L379.18657,20.3228867 L379.583591,19.5297423 L379.583591,19.5297423 L379.987213,18.7356782 C380.055017,18.6032947 380.123085,18.4709009 380.191409,18.3385106 L380.604387,17.5443232 L380.604387,17.5443232 L381.02324,16.7508914 L381.02324,16.7508914 L381.447674,15.9588852 L381.447674,15.9588852 L381.8774,15.1689748 L381.8774,15.1689748 L382.312126,14.3818302 L382.312126,14.3818302 L382.75156,13.5981217 C382.825175,13.4678272 382.898975,13.3377037 382.972952,13.2077654 L383.418904,12.4304673 L383.418904,12.4304673 L383.868836,11.6582806 L383.868836,11.6582806 L384.322458,10.8918753 L384.322458,10.8918753 L384.779478,10.1319215 L384.779478,10.1319215 L385.239605,9.37908943 C385.316536,9.25424812 385.393584,9.12973146 385.470743,9.00555343 L385.934985,8.26466032 C386.012565,8.1418926 386.090244,8.01949142 386.168016,7.89747075 L386.635718,7.1700244 C386.713838,7.04958157 386.792039,6.92954716 386.870315,6.80993514 L387.340821,6.09744332 L387.340821,6.09744332 Z M417.198237,29.4935899 C414.305658,22.4842128 420.43286,15.412367 426.995333,18.2157315 C429.446914,19.2900022 428.184698,23.540316 425.023517,23.4864496 L424.880708,23.4811364 L424.320709,23.1694368 C426.839742,20.0852851 423.481031,18.091438 422.081355,20.3969847 C421.388136,21.5540426 421.64943,22.7899747 422.251951,24.1886766 L422.396773,24.5143815 L422.396773,24.5143815 L422.552034,24.8460944 L422.552034,24.8460944 L422.887177,25.5284604 L422.887177,25.5284604 L423.426316,26.6027968 L423.426316,26.6027968 L423.609044,26.9753687 L423.609044,26.9753687 L423.790487,27.3555524 L423.790487,27.3555524 L423.96897,27.7435769 C424.057193,27.9395876 424.143678,28.1386245 424.227483,28.3408166 C426.373611,33.5431087 426.279742,36.4095859 424.041031,39.3069754 C418.411462,46.5655833 406.935012,44.5401799 410.449313,37.1572785 C411.662538,34.6334133 413.901892,32.7335914 417.882324,32.9512659 C418.255871,33.3879029 417.851463,34.1349516 417.571785,34.2908014 C414.430388,36.0045052 413.932753,41.7677278 415.767699,41.4560282 C417.07415,41.2383537 418.255871,40.3038989 419.157914,38.060821 C419.820606,36.4674011 419.399707,34.7472286 418.695222,32.9703515 L418.527978,32.5593282 L418.527978,32.5593282 L418.352852,32.146483 L418.352852,32.146483 L418.172026,31.7320073 L418.172026,31.7320073 L417.72025,30.7145395 L417.72025,30.7145395 L417.541868,30.308239 C417.423962,30.0371056 417.308531,29.7654781 417.198237,29.4935899 Z M213.917734,32.6073845 L221.029031,32.6073845 L221.177105,32.8024523 L221.177105,32.8024523 L221.43851,33.1319667 L221.43851,33.1319667 L221.638975,33.3762513 L221.638975,33.3762513 L221.860398,33.6402226 L221.860398,33.6402226 L222.231826,34.0730923 L222.231826,34.0730923 L222.650407,34.550257 L222.650407,34.550257 L223.452826,35.4439651 L223.452826,35.4439651 L224.189067,36.2475218 L224.189067,36.2475218 L224.386225,36.4607152 L225.361961,37.5522165 L225.361961,38.0318156 L221.062107,38.0318156 L220.651645,37.7660608 L220.651645,37.7660608 L220.010751,37.3395463 L220.010751,37.3395463 L219.059184,36.6904082 L219.059184,36.6904082 L218.177571,36.0783017 L218.177571,36.0783017 L217.696644,35.7413165 L217.696644,35.7413165 L217.028083,35.2684696 L217.028083,35.2684696 L216.391227,34.8116713 L216.391227,34.8116713 L215.786077,34.3709216 L215.786077,34.3709216 L215.212632,33.9462205 C215.1197,33.8767743 215.028089,33.8079969 214.9378,33.7398881 L214.411914,33.33926 L214.411914,33.33926 L213.917734,32.9546804 L213.917734,32.6073845 Z M394.84708,12.307747 L395.240605,11.7048162 C395.473863,11.3465548 395.689005,10.999665 395.887029,10.6641467 L396.116506,10.2669831 C396.2272,10.0711304 396.331876,9.87937145 396.43075,9.6917062 L396.620824,9.32183396 L396.620824,9.32183396 L396.795808,8.96287824 C397.075087,8.37371578 397.29309,7.83003867 397.457811,7.33184625 L397.550314,7.03838896 C397.665296,6.65439011 397.747201,6.29950139 397.80012,5.97372246 L397.834439,5.73484635 C397.844109,5.65704034 397.852033,5.58105368 397.858272,5.50688638 L397.872003,5.28984252 C397.942465,3.59715601 397.079955,2.95241326 396.168438,3.35554305 L396.054307,3.41139194 C395.863876,3.51356951 395.672917,3.66122754 395.489422,3.85436537 C395.230273,4.17953264 394.960828,4.53730663 394.68258,4.92455324 L394.344551,5.40319546 C394.002488,5.89558337 393.648605,6.42860663 393.28548,6.99684952 L392.91937,7.57663171 L392.91937,7.57663171 L392.547671,8.17869017 C392.485287,8.28082274 392.422694,8.38383335 392.359904,8.48769691 L391.980895,9.12091322 L391.980895,9.12091322 L391.597729,9.77339708 L391.597729,9.77339708 L391.210977,10.443945 L391.210977,10.443945 L390.821214,11.1313534 L390.821214,11.1313534 L390.42901,11.834419 L390.42901,11.834419 L390.03494,12.5519381 L390.03494,12.5519381 L389.639574,13.2827072 L389.639574,13.2827072 L389.243487,14.025523 L389.243487,14.025523 L388.847251,14.7791819 C388.781231,14.9056285 388.715228,15.0324766 388.649255,15.1597014 L388.253868,15.9273684 L388.253868,15.9273684 L387.859763,16.7028698 L387.859763,16.7028698 L387.467513,17.485002 L387.467513,17.485002 L386.883868,18.6680007 L386.883868,18.6680007 L386.498759,19.4614449 L386.498759,19.4614449 L385.92851,20.6557701 L385.92851,20.6557701 L385.554122,21.4530044 L385.554122,21.4530044 L385.185024,22.2496486 L385.185024,22.2496486 L384.743481,23.2163448 L384.743481,23.2163448 L384.599615,23.5232077 L384.599615,23.5232077 L384.411485,23.9053829 L384.411485,23.9053829 L384.301245,24.1189379 L384.301245,24.1189379 L383.933175,24.8045451 C383.919024,24.8316253 383.904896,24.8589331 383.890746,24.8866234 L383.76151,25.1503504 L383.76151,25.1503504 L383.670928,25.350046 L383.670928,25.350046 C383.484476,25.786039 383.764155,25.8485077 384.012972,25.5368081 C384.073332,25.4544131 384.147268,25.3613284 384.232892,25.2585839 L384.419165,25.0405206 L384.419165,25.0405206 L384.633253,24.798529 L384.633253,24.798529 L385.850915,23.4625468 L385.850915,23.4625468 L386.003509,23.2937302 L386.003509,23.2628178 C389.232284,19.9992334 392.2068,16.3115679 394.84708,12.307747 L394.84708,12.307747 Z" transform="translate(.166)"/>
</svg>
