<svg xmlns="http://www.w3.org/2000/svg" width="1634" height="575" viewBox="0 0 1634 575">
  <g fill="none" fill-rule="evenodd">
    <rect width="1634" height="575" fill="#F1F1F1" fill-rule="nonzero"/>
    <g transform="translate(1)">
      <text fill="#0A0B09" fill-rule="nonzero" font-family="OpenSans, Open Sans" font-size="30" transform="translate(976 443)">
        <tspan x="0" y="32">Colors: #0047dd;</tspan>
      </text>
      <text fill="#0A0B09" fill-rule="nonzero" font-family="OpenSans, Open Sans" font-size="30" transform="translate(976 493)">
        <tspan x="0" y="32">Stroke: 1px;</tspan>
      </text>
      <text fill="#0A0B09" fill-rule="nonzero" font-family="OpenSans, Open Sans" font-size="30" transform="translate(976 393)">
        <tspan x="0" y="32">Font: Open Sans</tspan>
      </text>
      <text fill="#0A0B09" fill-rule="nonzero" font-family="OpenSans-Light, Open Sans" font-size="21" font-weight="300" transform="translate(21 473)">
        <tspan x="0" y="22">3rem</tspan>
      </text>
      <text fill="#0A0B09" fill-rule="nonzero" font-family="OpenSans-Light, Open Sans" font-size="21" font-weight="300" transform="translate(204 536)">
        <tspan x="0" y="22">12rem</tspan>
      </text>
      <polygon fill="#0047DD" fill-rule="nonzero" points="91 529 379 529 379 457 91 457"/>
      <polygon stroke="#334F91" stroke-width="1.008" points="91 529 379 529 379 457 91 457"/>
      <text fill="#FFF" fill-rule="nonzero" font-family="OpenSans, Open Sans" font-size="27" transform="translate(154.5 471)">
        <tspan x=".202" y="29">CONTAINED</tspan>
      </text>
      <polygon fill="#0047DD" fill-rule="nonzero" points="451 529 739 529 739 457 451 457"/>
      <polygon stroke="#334F91" stroke-width="1.008" points="451 528 739 528 739 456 451 456"/>
      <text fill="#FFF" fill-rule="nonzero" font-family="OpenSans, Open Sans" font-size="27" transform="translate(514.5 474)">
        <tspan x=".202" y="29">CONTAINED</tspan>
      </text>
      <text fill="#0A0B09" fill-rule="nonzero" font-family="OpenSans-Light, Open Sans" font-size="21" font-weight="300" transform="translate(799 437)">
        <tspan x="0" y="22">0.80rem</tspan>
      </text>
      <g fill="#0A0B09" fill-rule="nonzero" font-family="OpenSans-Light, Open Sans" font-size="21" font-weight="300" transform="translate(421 365)">
        <text>
          <tspan x="0" y="22">0.80re</tspan>
        </text>
        <text>
          <tspan x="60.231" y="22">m</tspan>
        </text>
        <text>
          <tspan x="278.558" y="22">0.80rem</tspan>
        </text>
      </g>
      <text fill="#0A0B09" fill-rule="nonzero" font-family="OpenSans-Light, Open Sans" font-size="21" font-weight="300" transform="translate(799 500)">
        <tspan x="0" y="22">0.80rem</tspan>
      </text>
      <line x1="749" x2="785" y1="456.5" y2="456.5" fill="#FFFFFE" fill-rule="nonzero"/>
      <line x1="749" x2="785" y1="456.5" y2="456.5" stroke="#0A0B09" stroke-width="1.407"/>
      <line x1="749" x2="785" y1="465.5" y2="465.5" fill="#FFFFFE" fill-rule="nonzero"/>
      <path stroke="#0A0B09" stroke-width="1.407" d="M749,466.468481 L785,466.468481 M767,457 L767,466.468481"/>
      <line x1="749" x2="785" y1="519.5" y2="519.5" fill="#FFFFFE" fill-rule="nonzero"/>
      <line x1="749" x2="785" y1="519.5" y2="519.5" stroke="#0A0B09" stroke-width="1.407"/>
      <line x1="749" x2="785" y1="528.5" y2="528.5" fill="#FFFFFE" fill-rule="nonzero"/>
      <path stroke="#0A0B09" stroke-width="1.407" d="M749,529.468481 L785,529.468481 M767,520 L767,529.468481"/>
      <line x1="739.5" x2="739.5" y1="412" y2="448" fill="#FFFFFE" fill-rule="nonzero"/>
      <line x1="739.5" x2="739.5" y1="412" y2="448" stroke="#0A0B09" stroke-width="1.414"/>
      <line x1="730.5" x2="730.5" y1="412" y2="448" fill="#FFFFFE" fill-rule="nonzero"/>
      <path stroke="#0A0B09" stroke-width="1.414" d="M730.526316,412 L730.526316,448 M740,430 L730.526316,430"/>
      <line x1="460.5" x2="460.5" y1="412" y2="448" fill="#0A0B09" fill-rule="nonzero"/>
      <line x1="460.5" x2="460.5" y1="412" y2="448" stroke="#0A0B09" stroke-width="1.414"/>
      <line x1="451.5" x2="451.5" y1="412" y2="448" fill="#0A0B09" fill-rule="nonzero"/>
      <line x1="451.5" x2="451.5" y1="412" y2="448" stroke="#0A0B09" stroke-width="1.414"/>
      <line x1="460" x2="451" y1="429.5" y2="429.5" fill="#0A0B09" fill-rule="nonzero"/>
      <line x1="460" x2="451" y1="429.5" y2="429.5" stroke="#0A0B09" stroke-width="1.414"/>
      <text fill="#0A0B09" fill-rule="nonzero" font-family="OpenSans, Open Sans" font-size="45" transform="translate(976 270)">
        <tspan x="0" y="48">Details</tspan>
      </text>
      <text fill="#0A0B09" fill-rule="nonzero" font-family="OpenSans, Open Sans" font-size="45" transform="translate(462 270)">
        <tspan x="0" y="48">Padding</tspan>
      </text>
      <text fill="#0A0B09" fill-rule="nonzero" font-family="OpenSans, Open Sans" font-size="45" transform="translate(30 270)">
        <tspan x="0" y="48">Dimensions</tspan>
      </text>
      <text fill="#0A0B09" fill-rule="nonzero" font-family="OpenSans, Open Sans" font-size="120" transform="translate(16)">
        <tspan x="0" y="128">Contained Button Anatomy</tspan>
      </text>
      <line x1="2" x2="1613" y1="141.5" y2="141.5" fill="#FFFFFE" fill-rule="nonzero"/>
      <line x2="1632.5" y1="163.5" y2="163.5" stroke="#0A0B09" stroke-width="3"/>
      <text fill="#0A0B09" fill-rule="nonzero" font-family="OpenSans, Open Sans" font-size="60" transform="translate(30 162)">
        <tspan x="0" y="64">primary</tspan>
      </text>
    </g>
  </g>
</svg>
