<svg xmlns="http://www.w3.org/2000/svg" width="1615" height="570" viewBox="0 0 1615 570">
  <g fill="none" fill-rule="evenodd">
    <rect width="1630" height="575" fill="#F1F1F1"/>
    <g transform="translate(1)">
      <text fill="#0A0B09" font-family="OpenSans, Open Sans" font-size="30">
        <tspan x="956" y="415">Colors: #0047dd;</tspan>
      </text>
      <text fill="#0A0B09" font-family="OpenSans, Open Sans" font-size="30">
        <tspan x="956" y="465">Stroke: 1px;</tspan>
      </text>
      <text fill="#0A0B09" font-family="OpenSans, Open Sans" font-size="30">
        <tspan x="956" y="365">Font: Open Sans</tspan>
      </text>
      <text fill="#0A0B09" font-family="OpenSans-Light, Open Sans" font-size="21" font-weight="300">
        <tspan x="21" y="495">3rem</tspan>
      </text>
      <text fill="#0A0B09" font-family="OpenSans-Light, Open Sans" font-size="21" font-weight="300">
        <tspan x="204" y="558">12rem</tspan>
      </text>
      <polygon fill="#0047DD" points="91 529 379 529 379 457 91 457"/>
      <polygon stroke="#334F91" stroke-width="1.008" points="91 529 379 529 379 457 91 457"/>
      <text fill="#FFF" font-family="OpenSans, Open Sans" font-size="27">
        <tspan x="180" y="500">primary</tspan>
      </text>
      <polygon fill="#0047DD" points="451 529 739 529 739 457 451 457"/>
      <polygon stroke="#334F91" stroke-width="1.008" points="451 528 739 528 739 456 451 456"/>
      <text fill="#FFF" font-family="OpenSans, Open Sans" font-size="27">
        <tspan x="540" y="503">primary</tspan>
      </text>
      <text fill="#0A0B09" font-family="OpenSans-Light, Open Sans" font-size="21" font-weight="300">
        <tspan x="799" y="459">0.80rem</tspan>
      </text>
      <text fill="#0A0B09" font-family="OpenSans-Light, Open Sans" font-size="21" font-weight="300">
        <tspan x="421" y="387">0.80re</tspan> <tspan x="481.231" y="387" letter-spacing="199.788">m</tspan> <tspan x="699.558" y="387">0.80rem</tspan>
      </text>
      <text fill="#0A0B09" font-family="OpenSans-Light, Open Sans" font-size="21" font-weight="300">
        <tspan x="799" y="522">0.80rem</tspan>
      </text>
      <line x1="749" x2="785" y1="456.5" y2="456.5" fill="#FFFFFE"/>
      <line x1="749" x2="785" y1="456.5" y2="456.5" stroke="#0A0B09" stroke-width="1.407"/>
      <line x1="749" x2="785" y1="465.5" y2="465.5" fill="#FFFFFE"/>
      <path stroke="#0A0B09" stroke-width="1.407" d="M749,466.468481 L785,466.468481 M767,457 L767,466.468481"/>
      <line x1="749" x2="785" y1="519.5" y2="519.5" fill="#FFFFFE"/>
      <line x1="749" x2="785" y1="519.5" y2="519.5" stroke="#0A0B09" stroke-width="1.407"/>
      <line x1="749" x2="785" y1="528.5" y2="528.5" fill="#FFFFFE"/>
      <path stroke="#0A0B09" stroke-width="1.407" d="M749,529.468481 L785,529.468481 M767,520 L767,529.468481"/>
      <line x1="739.5" x2="739.5" y1="412" y2="448" fill="#FFFFFE"/>
      <line x1="739.5" x2="739.5" y1="412" y2="448" stroke="#0A0B09" stroke-width="1.414"/>
      <line x1="730.5" x2="730.5" y1="412" y2="448" fill="#FFFFFE"/>
      <path stroke="#0A0B09" stroke-width="1.414" d="M730.526316,412 L730.526316,448 M740,430 L730.526316,430"/>
      <line x1="460.5" x2="460.5" y1="412" y2="448" fill="#0A0B09"/>
      <line x1="460.5" x2="460.5" y1="412" y2="448" stroke="#0A0B09" stroke-width="1.414"/>
      <line x1="451.5" x2="451.5" y1="412" y2="448" fill="#0A0B09"/>
      <line x1="451.5" x2="451.5" y1="412" y2="448" stroke="#0A0B09" stroke-width="1.414"/>
      <line x1="460" x2="451" y1="429.5" y2="429.5" fill="#0A0B09"/>
      <line x1="460" x2="451" y1="429.5" y2="429.5" stroke="#0A0B09" stroke-width="1.414"/>
      <text fill="#0A0B09" font-family="OpenSans, Open Sans" font-size="45">
        <tspan x="956" y="308">Details</tspan>
      </text>
      <text fill="#0A0B09" font-family="OpenSans, Open Sans" font-size="45">
        <tspan x="442" y="308">Padding</tspan>
      </text>
      <text fill="#0A0B09" font-family="OpenSans, Open Sans" font-size="45">
        <tspan x="10" y="308">Dimensions</tspan>
      </text>
      <text fill="#0A0B09" font-family="OpenSans, Open Sans" font-size="120">
        <tspan x="6" y="128">Contained Button</tspan>
      </text>
      <line x1="2" x2="1613" y1="141.5" y2="141.5" fill="#FFFFFE"/>
      <line x2="1611" y1="163.5" y2="163.5" stroke="#0A0B09" stroke-width="3"/>
      <text fill="#0A0B09" font-family="OpenSans, Open Sans" font-size="60">
        <tspan x="10" y="226">primary</tspan>
      </text>
    </g>
  </g>
</svg>
